<svg xmlns="http://www.w3.org/2000/svg" xmlns:xlink="http://www.w3.org/1999/xlink" viewBox="0 0 16 16"><defs><style>.cls-1{isolation:isolate;}.cls-2{fill:url(#_429);}.cls-3{fill:#7953a2;opacity:0.6;}.cls-10,.cls-13,.cls-23,.cls-27,.cls-3,.cls-30,.cls-32,.cls-36,.cls-37,.cls-38,.cls-39,.cls-4,.cls-40,.cls-45,.cls-48,.cls-50,.cls-51,.cls-52,.cls-53,.cls-6,.cls-60,.cls-61,.cls-62,.cls-63,.cls-9{mix-blend-mode:multiply;}.cls-4{fill:url(#_109);}.cls-5{fill:url(#_429-2);}.cls-6{fill:url(#_109-2);}.cls-7{fill:url(#_429-3);}.cls-8{fill:url(#_429-4);}.cls-9{fill:url(#_109-3);}.cls-10{fill:url(#_109-4);}.cls-11{fill:url(#_121);}.cls-12{fill:url(#_429-5);}.cls-13{fill:#de5734;}.cls-13,.cls-54,.cls-55,.cls-56,.cls-57,.cls-64,.cls-65,.cls-66,.cls-67{opacity:0.5;}.cls-14{fill:#fedf66;}.cls-14,.cls-58{mix-blend-mode:soft-light;opacity:0.4;}.cls-15{fill:url(#_121-2);}.cls-16{fill:url(#_429-6);}.cls-17{fill:url(#_121-3);}.cls-18{fill:url(#_429-7);}.cls-19{fill:url(#_121-4);}.cls-20{fill:url(#_429-8);}.cls-21{fill:url(#_121-5);}.cls-22{fill:url(#_121-6);}.cls-23,.cls-27,.cls-30,.cls-32,.cls-36,.cls-37,.cls-38,.cls-39,.cls-40,.cls-48,.cls-50,.cls-51,.cls-52,.cls-53,.cls-60,.cls-61,.cls-62,.cls-63{opacity:0.37;}.cls-23{fill:url(#_168);}.cls-24{fill:#b33425;}.cls-25{fill:url(#_121-7);}.cls-26{fill:url(#_121-8);}.cls-27{fill:url(#_168-2);}.cls-28{fill:url(#_121-9);}.cls-29{fill:#fff;}.cls-30{fill:url(#_168-3);}.cls-31{fill:url(#_121-10);}.cls-32{fill:url(#_168-4);}.cls-33{fill:url(#_121-11);}.cls-34{fill:url(#_101);}.cls-35{fill:url(#_112);}.cls-36{fill:url(#_168-5);}.cls-37{fill:url(#_168-6);}.cls-38{fill:url(#_168-7);}.cls-39{fill:url(#_168-8);}.cls-40{fill:#ec8a23;}.cls-41{fill:#6f0f10;opacity:0.8;}.cls-42{fill:#dbe2ef;}.cls-43{fill:url(#_121-12);}.cls-44{fill:url(#_209);}.cls-45{opacity:0.69;fill:url(#_168-9);}.cls-46{fill:url(#_121-13);}.cls-47{fill:url(#_429-9);}.cls-48{fill:url(#_168-10);}.cls-49{fill:url(#_121-14);}.cls-50{fill:url(#_168-11);}.cls-51{fill:url(#_168-12);}.cls-52{fill:url(#_168-13);}.cls-53{fill:url(#_168-14);}.cls-54,.cls-55,.cls-56,.cls-57,.cls-64,.cls-65,.cls-66,.cls-67{mix-blend-mode:color-dodge;}.cls-54{fill:url(#_1056);}.cls-55{fill:url(#_1056-2);}.cls-56{fill:url(#_1056-3);}.cls-57{fill:url(#_1056-4);}.cls-58{fill:#f7fcfd;}.cls-59{fill:url(#_121-15);}.cls-60{fill:url(#_168-15);}.cls-61{fill:url(#_168-16);}.cls-62{fill:url(#_168-17);}.cls-63{fill:url(#_168-18);}.cls-64{fill:url(#_1056-5);}.cls-65{fill:url(#_1056-6);}.cls-66{fill:url(#_1056-7);}.cls-67{fill:url(#_1056-8);}</style><linearGradient id="_429" x1="3.23" y1="11.04" x2="5.06" y2="11.04" gradientUnits="userSpaceOnUse"><stop offset="0" stop-color="#dd3f26"/><stop offset="0.07" stop-color="#c73523"/><stop offset="0.18" stop-color="#ab281e"/><stop offset="0.3" stop-color="#971e1b"/><stop offset="0.41" stop-color="#8b191a"/><stop offset="0.52" stop-color="#871719"/><stop offset="0.62" stop-color="#8c171a"/><stop offset="0.73" stop-color="#9a191c"/><stop offset="0.85" stop-color="#b21b20"/><stop offset="0.97" stop-color="#d31e25"/><stop offset="1" stop-color="#db1f26"/></linearGradient><linearGradient id="_109" x1="3.23" y1="10.96" x2="5.06" y2="10.96" gradientUnits="userSpaceOnUse"><stop offset="0" stop-color="#b41f2d"/><stop offset="1" stop-color="#e64136"/></linearGradient><linearGradient id="_429-2" x1="10.94" y1="11.04" x2="12.77" y2="11.04" xlink:href="#_429"/><linearGradient id="_109-2" x1="10.94" y1="10.96" x2="12.77" y2="10.96" xlink:href="#_109"/><linearGradient id="_429-3" x1="4.76" y1="13.15" x2="7.55" y2="13.15" xlink:href="#_429"/><linearGradient id="_429-4" x1="8.49" y1="13.15" x2="11.28" y2="13.15" xlink:href="#_429"/><linearGradient id="_109-3" x1="4.76" y1="13.15" x2="7.55" y2="13.15" xlink:href="#_109"/><linearGradient id="_109-4" x1="8.49" y1="13.15" x2="11.28" y2="13.15" xlink:href="#_109"/><linearGradient id="_121" x1="2502.47" y1="448.33" x2="2501.45" y2="446.5" gradientTransform="translate(-1956.77 -1599.87) rotate(29.08)" gradientUnits="userSpaceOnUse"><stop offset="0" stop-color="#cb6c34"/><stop offset="0.67" stop-color="#faa936"/><stop offset="1" stop-color="#febc2c"/></linearGradient><linearGradient id="_429-5" x1="13.39" y1="6.79" x2="14.71" y2="6.79" xlink:href="#_429"/><linearGradient id="_121-2" x1="6179.98" y1="-1597.25" x2="6178.96" y2="-1599.08" gradientTransform="matrix(-0.87, 0.49, 0.49, 0.87, 6180.95, -1599.87)" xlink:href="#_121"/><linearGradient id="_429-6" x1="1.32" y1="6.79" x2="2.63" y2="6.79" xlink:href="#_429"/><linearGradient id="_121-3" x1="2502.42" y1="446.85" x2="2501.4" y2="445.02" xlink:href="#_121"/><linearGradient id="_429-7" x1="14.11" y1="5.47" x2="15.42" y2="5.47" xlink:href="#_429"/><linearGradient id="_121-4" x1="6179.96" y1="-1598.75" x2="6178.94" y2="-1600.58" gradientTransform="matrix(-0.87, 0.49, 0.49, 0.87, 6180.95, -1599.87)" xlink:href="#_121"/><linearGradient id="_429-8" x1="0.59" y1="5.47" x2="1.91" y2="5.47" xlink:href="#_429"/><linearGradient id="_121-5" x1="5.55" y1="5.98" x2="5.55" y2="2.32" gradientTransform="matrix(1, 0, 0, 1, 0, 0)" xlink:href="#_121"/><linearGradient id="_121-6" x1="5.14" y1="4.84" x2="5.14" y2="1.39" gradientTransform="matrix(1, 0, 0, 1, 0, 0)" xlink:href="#_121"/><linearGradient id="_168" x1="5.6" y1="3.62" x2="5.6" y2="5.79" gradientUnits="userSpaceOnUse"><stop offset="0" stop-color="#c11e68"/><stop offset="1" stop-color="#fff"/></linearGradient><linearGradient id="_121-7" x1="2418.57" y1="5.98" x2="2418.57" y2="2.32" gradientTransform="matrix(-1, 0, 0, 1, 2429.05, 0)" xlink:href="#_121"/><linearGradient id="_121-8" x1="2418.16" y1="4.84" x2="2418.16" y2="1.39" gradientTransform="matrix(-1, 0, 0, 1, 2429.05, 0)" xlink:href="#_121"/><linearGradient id="_168-2" x1="10.44" y1="3.62" x2="10.44" y2="5.79" xlink:href="#_168"/><linearGradient id="_121-9" x1="2.82" y1="10.08" x2="2.82" y2="7.77" gradientTransform="matrix(1, 0, 0, 1, 0, 0)" xlink:href="#_121"/><linearGradient id="_168-3" x1="3.09" y1="8.84" x2="3.09" y2="9.92" xlink:href="#_168"/><linearGradient id="_121-10" x1="-179.11" y1="10.08" x2="-179.11" y2="7.77" gradientTransform="matrix(-1, 0, 0, 1, -165.9, 0)" xlink:href="#_121"/><linearGradient id="_168-4" x1="12.95" y1="8.84" x2="12.95" y2="9.92" xlink:href="#_168"/><linearGradient id="_121-11" x1="8.04" y1="13.26" x2="8.04" y2="4.07" gradientTransform="matrix(1, 0, 0, 1, 0, 0)" xlink:href="#_121"/><linearGradient id="_101" x1="8.04" y1="2.45" x2="8.04" y2="11.69" gradientUnits="userSpaceOnUse"><stop offset="0" stop-color="#cb6c34"/><stop offset="0.18" stop-color="#cd6f34"/><stop offset="0.29" stop-color="#d27833"/><stop offset="0.4" stop-color="#dc8731"/><stop offset="0.49" stop-color="#ea9c2f"/><stop offset="0.57" stop-color="#fbb82c"/><stop offset="0.59" stop-color="#febc2c"/><stop offset="1" stop-color="#faa936"/></linearGradient><linearGradient id="_112" x1="8.04" y1="11.89" x2="8.04" y2="3.53" gradientUnits="userSpaceOnUse"><stop offset="0" stop-color="#b85327"/><stop offset="0.38" stop-color="#e96a2a"/><stop offset="1" stop-color="#f78f2e"/></linearGradient><linearGradient id="_168-5" x1="4.18" y1="8.01" x2="4.18" y2="10.53" xlink:href="#_168"/><linearGradient id="_168-6" x1="11.87" y1="8.01" x2="11.87" y2="10.53" xlink:href="#_168"/><linearGradient id="_168-7" x1="6" y1="10.31" x2="6" y2="12.92" xlink:href="#_168"/><linearGradient id="_168-8" x1="10.07" y1="10.31" x2="10.07" y2="12.97" xlink:href="#_168"/><linearGradient id="_121-12" x1="8.02" y1="4.15" x2="8.02" y2="10.82" gradientTransform="matrix(1, 0, 0, 1, 0, 0)" xlink:href="#_121"/><linearGradient id="_209" x1="8.02" y1="11.63" x2="8.02" y2="8.66" gradientUnits="userSpaceOnUse"><stop offset="0" stop-color="#f2cb3b"/><stop offset="1" stop-color="#fec151"/></linearGradient><linearGradient id="_168-9" x1="10.31" y1="7.91" x2="10.31" y2="11.34" xlink:href="#_168"/><linearGradient id="_121-13" x1="8.06" y1="5.43" x2="8.06" y2="1.74" gradientTransform="matrix(1, 0, 0, 1, 0, 0)" xlink:href="#_121"/><linearGradient id="_429-9" x1="6.91" y1="3.41" x2="9.2" y2="3.41" xlink:href="#_429"/><linearGradient id="_168-10" x1="8.03" y1="3.37" x2="8.03" y2="5.38" xlink:href="#_168"/><linearGradient id="_121-14" x1="8.05" y1="9.13" x2="8.05" y2="3.67" gradientTransform="matrix(1, 0, 0, 1, 0, 0)" xlink:href="#_121"/><linearGradient id="_168-11" x1="6.85" y1="6.2" x2="6.85" y2="7.38" xlink:href="#_168"/><linearGradient id="_168-12" x1="9.27" y1="6.2" x2="9.27" y2="7.38" xlink:href="#_168"/><linearGradient id="_168-13" x1="7.31" y1="6.85" x2="7.31" y2="9.04" xlink:href="#_168"/><linearGradient id="_168-14" x1="8.78" y1="6.85" x2="8.78" y2="9.04" xlink:href="#_168"/><linearGradient id="_1056" x1="8.26" y1="4.81" x2="8.59" y2="7.87" gradientUnits="userSpaceOnUse"><stop offset="0" stop-color="#c3d6ee"/><stop offset="1" stop-color="#010101"/></linearGradient><linearGradient id="_1056-2" x1="8.08" y1="6.4" x2="10.45" y2="6.4" xlink:href="#_1056"/><linearGradient id="_1056-3" x1="9.07" y1="4.72" x2="9.4" y2="7.78" xlink:href="#_1056"/><linearGradient id="_1056-4" x1="6.68" y1="4.98" x2="7.02" y2="8.04" xlink:href="#_1056"/><linearGradient id="_121-15" x1="8.04" y1="4.06" x2="8.04" y2="2.59" gradientTransform="matrix(1, 0, 0, 1, 0, 0)" xlink:href="#_121"/><linearGradient id="_168-15" x1="7.71" y1="3.27" x2="7.71" y2="3.59" xlink:href="#_168"/><linearGradient id="_168-16" x1="8.37" y1="3.27" x2="8.37" y2="3.59" xlink:href="#_168"/><linearGradient id="_168-17" x1="7.84" y1="3.44" x2="7.84" y2="4.04" xlink:href="#_168"/><linearGradient id="_168-18" x1="8.24" y1="3.44" x2="8.24" y2="4.04" xlink:href="#_168"/><linearGradient id="_1056-5" x1="8.09" y1="2.9" x2="8.18" y2="3.72" xlink:href="#_1056"/><linearGradient id="_1056-6" x1="8.05" y1="3.33" x2="8.69" y2="3.33" xlink:href="#_1056"/><linearGradient id="_1056-7" x1="8.31" y1="2.87" x2="8.4" y2="3.7" xlink:href="#_1056"/><linearGradient id="_1056-8" x1="7.67" y1="2.94" x2="7.76" y2="3.77" xlink:href="#_1056"/></defs><g class="cls-1"><g id="Layer_1" data-name="Layer 1"><polygon class="cls-2" points="3.23 9.17 3.23 12.92 4.97 11.87 5.06 9.26 3.23 9.17"/><polygon class="cls-3" points="3.23 12.46 4.98 11.55 4.97 11.87 3.23 12.92 3.23 12.46"/><path class="cls-4" d="M3.27,10.83c.11-.4.31-.12.31.45s-.07,1.47-.07,1.47l.15-.11A12.79,12.79,0,0,1,3.73,11c.08-.17.5-.11.5,1.35L5,11.87l.09-2.61L3.23,9.17v2.06Z"/><polygon class="cls-5" points="12.77 9.17 12.77 12.92 11.03 11.87 10.94 9.26 12.77 9.17"/><polygon class="cls-3" points="12.77 12.46 11.02 11.55 11.03 11.87 12.77 12.92 12.77 12.46"/><path class="cls-6" d="M12.73,10.83c-.11-.4-.31-.12-.31.45s.07,1.47.07,1.47l-.15-.11A12.79,12.79,0,0,0,12.27,11c-.08-.17-.5-.11-.5,1.35L11,11.87l-.09-2.61,1.83-.09v2.06Z"/><path class="cls-7" d="M7.55,11.89v3.68a16.29,16.29,0,0,1-2.79-2.3V10.73Z"/><path class="cls-3" d="M7.55,14.83v.74a16.29,16.29,0,0,1-2.79-2.3v-.63A9,9,0,0,0,7.55,14.83Z"/><path class="cls-8" d="M8.49,11.89v3.68a16.29,16.29,0,0,0,2.79-2.3V10.73Z"/><path class="cls-3" d="M8.49,14.83v.74a16.29,16.29,0,0,0,2.79-2.3v-.63A9,9,0,0,1,8.49,14.83Z"/><path class="cls-9" d="M5,13.53s0-1.69.24-1.66a1.15,1.15,0,0,1,.82.61,15.89,15.89,0,0,1,.07,2.08l.1.08s-.13-2.16.08-2.05a1,1,0,0,1,.57.78A17.25,17.25,0,0,1,7,15.26l.52.31V11.89L4.76,10.73v2.54Z"/><path class="cls-10" d="M11,13.53s0-2-.25-1.95-.27,1-.27,1.34,0,1.14,0,1.14l-.15.13s0-2.24-.18-2.14-1.11.8-1.2,1.28a15.25,15.25,0,0,0-.06,2l-.38.23V11.89l2.79-1.16v2.54Z"/><polygon class="cls-11" points="9.14 6.3 15.25 6.26 14.68 7.29 9.46 7.43 9.14 6.3"/><polygon class="cls-12" points="14.71 6.26 14 6.26 13.39 7.31 14.12 7.29 14.71 6.26"/><polygon class="cls-13" points="9.41 7.11 14.85 6.98 14.68 7.29 9.46 7.43 9.41 7.11"/><path class="cls-14" d="M12.61,6.35c0,.05.16.58.25.57s1.85,0,1.93,0,.38-.5.31-.56A20.64,20.64,0,0,0,12.61,6.35Z"/><path class="cls-13" d="M12.48,6.27a7.05,7.05,0,0,1,.24.76.7.7,0,0,1-.08.31l-3.18.09L9.14,6.3Z"/><polygon class="cls-15" points="6.9 6.3 0.79 6.26 1.36 7.29 6.58 7.43 6.9 6.3"/><polygon class="cls-16" points="1.32 6.26 2.02 6.27 2.63 7.32 1.9 7.3 1.32 6.26"/><polygon class="cls-13" points="6.63 7.11 1.19 6.98 1.36 7.29 6.58 7.43 6.63 7.11"/><path class="cls-14" d="M3.39,6.33c.15.14-.12.63-.21.62s-1.85,0-1.93-.07-.38-.5-.31-.56A14.33,14.33,0,0,1,3.39,6.33Z"/><path class="cls-13" d="M3.56,6.27A7.05,7.05,0,0,0,3.32,7a.7.7,0,0,0,.08.31l3.18.09L6.9,6.3Z"/><polygon class="cls-17" points="9.82 4.98 15.93 4.94 15.36 5.96 10.13 6.11 9.82 4.98"/><polygon class="cls-18" points="15.42 4.94 14.71 4.95 14.11 6 14.84 5.97 15.42 4.94"/><polygon class="cls-13" points="10.09 5.79 15.53 5.66 15.36 5.96 10.13 6.11 10.09 5.79"/><path class="cls-14" d="M13.28,5s.17.58.26.57,1.85,0,1.93,0,.37-.51.31-.56A20.83,20.83,0,0,0,13.28,5Z"/><path class="cls-13" d="M12.36,5a7.05,7.05,0,0,1,.24.76.66.66,0,0,1-.09.31l-2.38.08L9.82,5Z"/><polygon class="cls-19" points="6.18 4.98 0.07 4.94 0.64 5.96 5.87 6.11 6.18 4.98"/><polygon class="cls-20" points="0.59 4.94 1.3 4.95 1.91 6 1.18 5.98 0.59 4.94"/><polygon class="cls-13" points="5.91 5.79 0.47 5.66 0.64 5.96 5.87 6.11 5.91 5.79"/><path class="cls-14" d="M2.67,5c.15.14-.12.63-.2.61S.61,5.61.53,5.56.16,5.05.22,5A14.33,14.33,0,0,1,2.67,5Z"/><path class="cls-13" d="M3.67,5a7.05,7.05,0,0,0-.24.76A.81.81,0,0,0,3.52,6l2.35.08L6.18,5Z"/><polygon class="cls-21" points="4.16 6.1 3.86 5.16 4.15 4.78 6.17 3.56 6.17 1.21 6.43 1.02 7.24 0.43 7.24 4.45 4.16 6.1"/><polygon class="cls-22" points="3.86 5.16 6.43 3.68 6.43 1.02 6.17 1.21 6.17 3.56 4.15 4.78 3.86 5.16"/><path class="cls-14" d="M6.49,1a12.49,12.49,0,0,0,.1,2.07c.09,0,.54-.22.58-.32a14.34,14.34,0,0,0,0-2.1C7.06.68,6.5.91,6.49,1Z"/><path class="cls-23" d="M6.5,3.72C6.27,3.9,4,5.15,4,5.24s.27.59.41.55S7.23,4.2,7.24,4.13s0-.47-.06-.5A1.51,1.51,0,0,0,6.5,3.72Z"/><polygon class="cls-24" points="3.86 5.24 6.48 3.71 6.5 0.97 6.43 1.02 6.43 3.68 3.86 5.16 3.86 5.24"/><path class="cls-14" d="M6.2,3.59a19.6,19.6,0,0,0-2,1.24s-.33.24-.25.23S6.37,3.72,6.38,3.68,6.28,3.58,6.2,3.59Z"/><path class="cls-14" d="M3.86,5.24s1.24-.63,1.88-1l.76-.49Z"/><polygon class="cls-13" points="6.17 3.26 6.43 3.04 6.49 3.04 7.24 2.63 7.24 4.45 6.38 4.89 5.96 3.69 6.17 3.56 6.17 3.26"/><polygon class="cls-25" points="11.88 6.1 12.18 5.16 11.88 4.78 9.87 3.56 9.87 1.21 9.61 1.02 8.78 0.43 8.78 4.44 11.88 6.1"/><polygon class="cls-26" points="12.18 5.16 9.61 3.68 9.61 1.02 9.87 1.21 9.87 3.56 11.88 4.78 12.18 5.16"/><path class="cls-14" d="M9.51,1a14,14,0,0,1,0,2.07,1.14,1.14,0,0,1-.61-.34A14,14,0,0,1,8.92.67C9,.68,9.5.91,9.51,1Z"/><path class="cls-27" d="M9.54,3.72c.22.18,2.51,1.43,2.54,1.52s-.26.59-.4.55S8.81,4.2,8.8,4.13s0-.47.06-.5A1.51,1.51,0,0,1,9.54,3.72Z"/><polygon class="cls-24" points="12.18 5.24 9.55 3.71 9.54 0.97 9.61 1.02 9.61 3.68 12.18 5.16 12.18 5.24"/><path class="cls-14" d="M9.84,3.59a19.6,19.6,0,0,1,2,1.24s.33.24.25.23S9.66,3.72,9.66,3.68,9.76,3.58,9.84,3.59Z"/><path class="cls-14" d="M12.18,5.24s-1.24-.63-1.88-1l-.76-.49Z"/><polygon class="cls-13" points="9.87 3.26 9.61 3.04 9.55 3.04 8.8 2.63 8.8 4.45 9.66 4.89 10.08 3.69 9.87 3.56 9.87 3.26"/><path class="cls-28" d="M4,10.09S2.48,9.6,2.48,9.6a9.29,9.29,0,0,1-.95-1.85H4.12Z"/><path class="cls-24" d="M2,7.75s.6,1.25.71,1.38l1.31,0V9.08A11.25,11.25,0,0,1,2.78,9C2.71,9,2.1,7.75,2.1,7.75Z"/><path class="cls-29" d="M2,7.75l.71,1.38a6.53,6.53,0,0,1-.42-.69A6.93,6.93,0,0,1,2,7.75Z"/><path class="cls-14" d="M2.21,7.84a3,3,0,0,0,.58,1c.08,0,1,0,1.13-.15A1.57,1.57,0,0,0,4,7.84,6.76,6.76,0,0,0,2.21,7.84Z"/><path class="cls-14" d="M1.62,7.8a5.2,5.2,0,0,0,.53,1c.06,0,.27,0,.28-.06a3.06,3.06,0,0,0-.49-1C1.85,7.79,1.59,7.73,1.62,7.8Z"/><path class="cls-30" d="M2.21,9a2,2,0,0,0,.39.6,6.06,6.06,0,0,0,1.29.36A2.73,2.73,0,0,0,4,8.85,7.09,7.09,0,0,0,2.21,9Z"/><path class="cls-13" d="M3.25,7.75a10.79,10.79,0,0,1,.16,2.16l.6.18.11-2.34Z"/><path class="cls-31" d="M12,10.09s1.52-.49,1.52-.49a9.06,9.06,0,0,0,1-1.85H11.92Z"/><path class="cls-24" d="M14,7.75S13.41,9,13.3,9.13L12,9.17V9.08a11.25,11.25,0,0,0,1.27,0c.06,0,.68-1.29.68-1.29Z"/><path class="cls-29" d="M14,7.75,13.3,9.13a6.53,6.53,0,0,0,.42-.69A6.93,6.93,0,0,0,14,7.75Z"/><path class="cls-14" d="M13.83,7.84a3,3,0,0,1-.58,1c-.08,0-1,0-1.13-.15S12,7.85,12,7.84A6.76,6.76,0,0,1,13.83,7.84Z"/><path class="cls-14" d="M14.42,7.8a5.2,5.2,0,0,1-.53,1c-.06,0-.27,0-.28-.06a3.06,3.06,0,0,1,.49-1C14.19,7.79,14.45,7.73,14.42,7.8Z"/><path class="cls-32" d="M13.83,9a2,2,0,0,1-.39.6,6,6,0,0,1-1.3.36,2.93,2.93,0,0,1-.05-1.06A7.09,7.09,0,0,1,13.83,9Z"/><path class="cls-13" d="M12.79,7.75a10.79,10.79,0,0,0-.16,2.16l-.6.18-.11-2.34Z"/><polygon class="cls-33" points="8.04 2.35 3.8 4.8 3.8 10.63 8.04 13.07 12.27 10.63 12.27 4.8 8.04 2.35"/><polygon class="cls-34" points="4.57 10.19 4.57 5.24 8.04 3.24 11.5 5.24 11.5 10.19 8.04 12.19 4.57 10.19"/><polygon class="cls-35" points="4.82 10.04 4.82 5.39 8.04 3.53 11.25 5.39 11.25 10.04 8.04 11.89 4.82 10.04"/><path class="cls-14" d="M3.91,4.81c-.05.16.4.35.71.28A23.92,23.92,0,0,0,8,3.12a3.52,3.52,0,0,0,0-.65C7.89,2.47,3.93,4.74,3.91,4.81Z"/><path class="cls-14" d="M12.14,4.81c.06.16-.39.35-.71.28a28.21,28.21,0,0,1-3.37-2c-.05-.07-.07-.65,0-.65S12.12,4.74,12.14,4.81Z"/><path class="cls-36" d="M3.9,8.13a17.44,17.44,0,0,0,0,2.4,1.09,1.09,0,0,0,.59-.44c0-.15,0-1.66,0-1.81S4,7.84,3.9,8.13Z"/><path class="cls-37" d="M12.15,8.13a14.76,14.76,0,0,1,0,2.4,1,1,0,0,1-.58-.44,15.61,15.61,0,0,1,0-1.81C11.6,8.14,12.1,7.84,12.15,8.13Z"/><path class="cls-38" d="M4,10.59c0,.07,3.86,2.33,3.92,2.33A3.54,3.54,0,0,0,8,12.3a31.14,31.14,0,0,0-3.43-2C4.48,10.29,4,10.51,4,10.59Z"/><path class="cls-39" d="M12.07,10.65C12,10.72,8.13,13,8.08,13a3.48,3.48,0,0,1,0-.72c.12-.13,3.34-1.92,3.4-1.94S12.12,10.57,12.07,10.65Z"/><path class="cls-40" d="M5,9.92C4.74,8.63,4.87,8.55,6.47,8S10.77,6.05,11,6.66a13,13,0,0,1,.1,3.35A20.63,20.63,0,0,1,8,11.76,19.19,19.19,0,0,1,5,9.92Z"/><path class="cls-14" d="M11.18,5.42c-.06,0-3-1.69-3.12-1.68a13.26,13.26,0,0,0-3,1.67,7.08,7.08,0,0,0,.06,3,4,4,0,0,1,2.6-1.85c2.22-.64,3.18-.09,3.42,0C11.2,6.59,11.31,5.45,11.18,5.42Z"/><path class="cls-13" d="M4.57,10.19V5.24L8,3.24l3.46,2v4.95L11.25,10s0-4.3-.08-4.44A7.57,7.57,0,0,0,7.86,4.08a11.41,11.41,0,0,0-3,1.52C4.8,5.73,4.82,10,4.82,10Z"/><path class="cls-14" d="M8.68,5.92A4.67,4.67,0,0,0,11,6.24c.12-.07.2-.63,0-.72a6.81,6.81,0,0,0-2.06-.8C8.53,4.81,8.53,5.85,8.68,5.92Z"/><path class="cls-41" d="M3.8,6.57a16.43,16.43,0,0,1,.11-1.76C4,4.7,7.94,2.5,8.06,2.47a11.93,11.93,0,0,1,1.6.82L8,2.35,3.8,4.8Z"/><path class="cls-29" d="M9.55,4.11a19.26,19.26,0,0,1,1.89,1.18c0,.12.06,3.32.06,3.32s0-3.23,0-3.37A14.59,14.59,0,0,0,9.55,4.11Z"/><path class="cls-29" d="M4.57,8s-.06-2.67,0-2.76S8,3.24,8,3.24s-3.35,1.91-3.42,2S4.57,8,4.57,8Z"/><path class="cls-41" d="M3.8,10.63,8,13.07l4.23-2.44V9.3a8.46,8.46,0,0,1-.12,1.3A45.49,45.49,0,0,1,8.08,13,42.58,42.58,0,0,1,3.9,10.53c-.1-.15-.1-2.87-.1-2.87Z"/><path class="cls-14" d="M4.57,8.92a9.16,9.16,0,0,0,0,1.24c.06.09,1.71,1,1.71,1s-1.78-.92-1.8-1S4.57,8.92,4.57,8.92Z"/><path class="cls-14" d="M6,11.23c-.12,0-.47.14-.4.22S7.76,12.79,8,12.88c.08,0,.07-.47,0-.63A7,7,0,0,0,6,11.23Z"/><path class="cls-29" d="M9.8,3.54c-.07,0,.16.31.27.33s.26-.05.21-.1S9.91,3.51,9.8,3.54Z"/><path class="cls-29" d="M10.31,3.83c-.1,0,.09.48.17.56s.81.22.79.09A2.08,2.08,0,0,0,10.31,3.83Z"/><path class="cls-13" d="M10,11.24c-.09.4-.08.63,0,.63s1.9-1.11,2-1.16-.3-.37-.44-.34A5.77,5.77,0,0,0,10,11.24Z"/><path class="cls-13" d="M4.79,5.35c0-.13-.18-.13-.19,0s0,2.92,0,2.93.17-.14.17-.2S4.81,5.42,4.79,5.35Z"/><path class="cls-13" d="M11.28,5.37s0,2.67,0,2.67.19-.12.19-.19,0-2.53-.06-2.55S11.28,5.33,11.28,5.37Z"/><path class="cls-13" d="M8,3.49s-1.5.9-1.53.9,0-.23,0-.26S8,3.23,8,3.26A1.76,1.76,0,0,1,8,3.49Z"/><path class="cls-24" d="M11.11,10.39c-.09,0-.41.18-.39.27s.22.19.28.14S11.18,10.39,11.11,10.39Z"/><path class="cls-24" d="M11.24,10.45s-.11.14,0,.19.27-.09.24-.13S11.28,10.41,11.24,10.45Z"/><path class="cls-13" d="M10.77,10.57c-.08.11.25.18.29.09s.11-.28,0-.27A.86.86,0,0,0,10.77,10.57Z"/><path class="cls-42" d="M10.72,10.63a.27.27,0,0,0,.13.15c.07.05.14,0,.16,0a.13.13,0,0,1-.16,0C10.69,10.74,10.72,10.63,10.72,10.63Z"/><path class="cls-13" d="M11.27,10.45c-.07.08,0,.2,0,.19s.16-.09.14-.13S11.29,10.44,11.27,10.45Z"/><path class="cls-42" d="M11.24,10.45s-.07.09,0,.15a.07.07,0,0,0,.06.05s-.09,0-.1,0S11.24,10.45,11.24,10.45Z"/><path class="cls-24" d="M7.6,3.46a.52.52,0,0,0-.51.2c-.1.12,0,.18.08.16S7.7,3.49,7.6,3.46Z"/><path class="cls-13" d="M7.6,3.46a.52.52,0,0,0-.41.1c-.06.06.06.21.14.18S7.67,3.48,7.6,3.46Z"/><path class="cls-14" d="M7.15,3.6s-.26.17-.23.26.33-.07.33-.07-.16,0-.19,0S7.15,3.6,7.15,3.6Z"/><path class="cls-29" d="M4.72,10.22c-.13,0,.23.28.32.29s0-.2,0-.24A.5.5,0,0,0,4.72,10.22Z"/><path class="cls-43" d="M8,10.46,3.66,7.91a2.9,2.9,0,0,0-.21.75l.29.48L8,11.63H8l4.3-2.49.25-.48a2.33,2.33,0,0,0-.15-.75Z"/><polygon class="cls-44" points="3.74 9.14 3.45 8.66 8.03 11.34 12.58 8.66 12.33 9.14 8.03 11.63 3.74 9.14"/><path class="cls-13" d="M3.45,8.66l.29.48.06,0v.14l.73.39s.3.31.3.31S7.92,11.89,8,11.89,11.25,10,11.25,10l.26-.21.76-.4v-.2l.06,0,.25-.48L8,11.34Z"/><path class="cls-45" d="M8,10.46v.88l4.55-2.68a2.3,2.3,0,0,0-.15-.75Z"/><path class="cls-14" d="M3.89,8.1c-.09,0,0,.74.24.91a34.15,34.15,0,0,0,3,1.71c.11,0,.11-.63.07-.68S4,8.1,3.89,8.1Z"/><path class="cls-14" d="M9.38,9.7c-.05.05,0,.74,0,.72a16.42,16.42,0,0,0,2.11-1.23c.65-.47.74-1.1.6-1.09S9.49,9.59,9.38,9.7Z"/><path class="cls-29" d="M5.81,10S7.9,11.29,8,11.29s1.81-1,1.81-1S8.08,11.39,8,11.39,5.81,10,5.81,10Z"/><path class="cls-13" d="M6.46,3.27a1.42,1.42,0,0,0,0,.24s.3.48.3.48v.3L8.05,5.52l1.3-1.19L9.4,4a3.57,3.57,0,0,0,.3-.53c0-.06-.27-.35-.27-.35L8,2.35Z"/><path class="cls-46" d="M9.58,3.41h0L8.06,1.33h0L6.54,3.4h0L8.05,5.49v0h0v0L9.57,3.42Z"/><polygon class="cls-13" points="6.85 3.41 6.85 3.41 8.05 1.75 9.26 3.41 8.05 5.07 8.05 5.07 6.85 3.41"/><polygon class="cls-47" points="6.91 3.41 8.05 1.84 9.2 3.41 8.05 4.99 6.91 3.41"/><path class="cls-14" d="M8,1.43a20.87,20.87,0,0,0-1.4,1.93,7.31,7.31,0,0,0,1.49,0,11.33,11.33,0,0,0,1.38,0S8.06,1.41,8,1.43Z"/><path class="cls-48" d="M6.6,3.42a13.61,13.61,0,0,0,1.48,2,11.56,11.56,0,0,0,1.38-2A22.68,22.68,0,0,0,6.6,3.42Z"/><polygon class="cls-13" points="8.04 8.36 6.43 9.2 6.74 7.41 5.44 6.14 7.24 5.88 8.04 4.25 8.85 5.88 10.65 6.14 9.35 7.41 9.65 9.2 8.04 8.36"/><polygon class="cls-49" points="10.46 6.2 9.59 6.08 9.36 6.04 8.79 5.96 8.04 4.45 7.3 5.96 5.63 6.2 6.84 7.38 6.55 9.04 8.04 8.26 9.54 9.04 9.25 7.38 10.46 6.2"/><polygon class="cls-50" points="5.62 6.2 8.08 6.85 6.83 7.38 5.62 6.2"/><polygon class="cls-51" points="10.45 6.2 8.08 6.85 9.24 7.38 10.45 6.2"/><polygon class="cls-52" points="8.04 8.26 8.08 6.85 6.54 9.04 8.04 8.26"/><polygon class="cls-53" points="9.53 9.04 8.08 6.85 8.04 8.26 9.53 9.04"/><polygon class="cls-54" points="8.04 4.45 8.08 6.85 8.78 5.96 8.04 4.45"/><polygon class="cls-55" points="10.45 6.2 8.08 6.85 8.78 5.96 10.45 6.2"/><polygon class="cls-56" points="10.45 6.2 8.08 6.85 8.78 5.96 10.45 6.2"/><polygon class="cls-57" points="7.29 5.96 8.08 6.85 5.62 6.2 7.29 5.96"/><path class="cls-29" d="M8.78,6.49c-.12.1,0,.17,0,.17l.63-.17A.51.51,0,0,0,8.78,6.49Z"/><path class="cls-13" d="M6.55,9s1.13-.53,1.5-.68L9.54,9,8.05,8.26Z"/><polygon class="cls-13" points="5.62 6.2 8.08 6.85 6.73 8.01 5.62 6.2"/><polygon class="cls-13" points="10.45 6.2 8.08 6.85 9.39 8.16 10.45 6.2"/><polygon class="cls-13" points="6.55 9.04 8.08 6.85 9.54 9.04 8.04 8.81 6.55 9.04"/><path class="cls-58" d="M7.49,5.7c-.16.44.45.75.53.61a1.75,1.75,0,0,0-.08-1C7.84,5.21,7.55,5.52,7.49,5.7Z"/><path class="cls-58" d="M7,8c.33,0,.51-.32.57-.57C7.67,7,6.41,7.88,7,8Z"/><polygon class="cls-13" points="8.04 3.85 7.6 4.08 7.68 3.6 7.33 3.25 7.82 3.18 8.04 2.74 8.25 3.18 8.74 3.25 8.39 3.6 8.47 4.08 8.04 3.85"/><polygon class="cls-59" points="8.69 3.27 8.45 3.24 8.39 3.23 8.24 3.21 8.04 2.8 7.83 3.21 7.38 3.27 7.71 3.59 7.63 4.04 8.04 3.83 8.44 4.04 8.36 3.59 8.69 3.27"/><polygon class="cls-60" points="7.38 3.27 8.04 3.44 7.71 3.59 7.38 3.27"/><polygon class="cls-61" points="8.69 3.27 8.04 3.44 8.36 3.59 8.69 3.27"/><polygon class="cls-62" points="8.03 3.83 8.04 3.44 7.63 4.04 8.03 3.83"/><polygon class="cls-63" points="8.44 4.04 8.04 3.44 8.03 3.83 8.44 4.04"/><polygon class="cls-64" points="8.03 2.8 8.04 3.44 8.23 3.21 8.03 2.8"/><polygon class="cls-65" points="8.69 3.27 8.04 3.44 8.23 3.21 8.69 3.27"/><polygon class="cls-66" points="8.69 3.27 8.04 3.44 8.23 3.21 8.69 3.27"/><polygon class="cls-67" points="7.83 3.21 8.04 3.44 7.38 3.27 7.83 3.21"/><path class="cls-29" d="M8.24,3.35s0,0,0,0l.17,0A.12.12,0,0,0,8.24,3.35Z"/><path class="cls-13" d="M7.63,4,8,3.85l.4.19L8,3.83Z"/><polygon class="cls-13" points="7.38 3.27 8.04 3.44 7.68 3.76 7.38 3.27"/><polygon class="cls-13" points="8.69 3.27 8.04 3.44 8.4 3.8 8.69 3.27"/><polygon class="cls-13" points="7.63 4.04 8.04 3.44 8.44 4.04 8.04 3.97 7.63 4.04"/><path class="cls-58" d="M7.89,3.14c0,.11.12.2.14.16A.49.49,0,0,0,8,3S7.9,3.09,7.89,3.14Z"/><path class="cls-58" d="M7.75,3.74c.09,0,.14-.08.16-.15S7.59,3.72,7.75,3.74Z"/></g></g></svg>