<svg id="Layer_1" data-name="Layer 1" xmlns="http://www.w3.org/2000/svg" xmlns:xlink="http://www.w3.org/1999/xlink" viewBox="0 0 16 16"><defs><style>.cls-1{fill:url(#radial-gradient);}.cls-2{fill:url(#radial-gradient-2);}</style><radialGradient id="radial-gradient" cx="7.21" cy="2.48" r="2.91" gradientUnits="userSpaceOnUse"><stop offset="0" stop-color="#fff200"/><stop offset="1" stop-color="#f7941d"/></radialGradient><radialGradient id="radial-gradient-2" cx="6.31" cy="9.7" r="5.53" gradientUnits="userSpaceOnUse"><stop offset="0" stop-color="#f7941d"/><stop offset="1" stop-color="#ed1c24"/></radialGradient></defs><path class="cls-1" d="M10.92,3.23A2.92,2.92,0,1,1,8,.32,2.91,2.91,0,0,1,10.92,3.23Z"/><path class="cls-2" d="M14.14,12.34C13.33,8.75,10.89,6.15,8,6.15S2.66,8.77,1.86,12.37a1.42,1.42,0,0,0,.26,1.28c.68.73,2.24,2.07,5.78,2,3.36,0,5-1.2,5.83-1.93A1.39,1.39,0,0,0,14.14,12.34Z"/></svg>