<svg width="1920" height="668" viewBox="0 0 1920 668" fill="none" xmlns="http://www.w3.org/2000/svg">
<path d="M-0.226562 607.979C77.741 580.153 152.855 544.661 216.941 488.205C279.601 432.943 295.169 334.314 401.806 346.391C468.877 353.993 525.958 452.972 443.58 474.597C403.753 485.079 375.082 537.539 423.212 554.507C542.304 596.603 609.763 461.313 710.174 456.76C787.363 453.271 844.963 527.926 884.661 584.577C904.12 612.442 924.487 649.076 958.476 661.503C1041.24 691.729 1094.69 527.252 1145.94 592.244C1153.2 601.454 1158.78 625.194 1193.68 630.668C1246.22 638.906 1306.8 633.691 1371.28 631.991C1394.89 631.369 1443.02 629.358 1448.73 603.634C1479.73 464.622 1437.44 462.118 1438.61 407.491C1439.26 377.629 1464.68 351.567 1453.27 313.221C1444.57 283.735 1397.87 244.104 1395.02 222.92C1390.09 185.248 1431.21 213.346 1452.88 212.192C1474.02 211.05 1462.74 163.662 1458.58 150.262C1456.64 144.126 1454.3 133.06 1449.11 130.518C1434.84 123.59 1440.68 144.398 1446.26 144.813C1447.69 144.917 1450.02 144.398 1451.71 141.259C1458.2 128.753 1448.85 108.918 1460.79 100.201C1477.65 88.0329 1495.69 105.377 1500.75 118.285C1510.35 142.712 1491.28 175.493 1480.77 174.247C1445.22 170.122 1393.72 134.837 1371.67 115.846C1354.93 101.407 1337.03 62.5553 1373.74 62.4905C1444.7 62.3478 1492.7 148.147 1573.01 161.029C1590.52 163.818 1611.41 137.263 1593.76 122.008C1578.32 108.607 1557.44 137.925 1545.63 152.532C1522.93 180.915 1500.62 250.421 1500.75 284.383C1500.88 339.347 1509.57 367.134 1522.67 412.498C1548.36 501.722 1560.55 538.343 1618.93 607.603C1633.72 625.167 1607 646.78 1593.11 649.867C1548.23 659.778 1510.35 624.558 1511.26 568.984C1512.16 509.726 1567.17 433.203 1563.28 402.808C1558.87 369.326 1483.75 354.447 1488.68 312.507C1494.39 264.951 1574.95 229.341 1585.72 216.278C1589.87 211.141 1564.83 211.18 1551.47 209.416C1543.43 208.339 1533.05 205.316 1513.2 197.754C1502.17 193.576 1495.56 186.338 1489.46 189.075C1475.19 195.509 1448.6 273.979 1472.85 277.871C1484.66 279.765 1480.38 264.496 1478.04 258.646C1472.34 243.935 1434.84 221.389 1412.53 243.364C1406.69 249.15 1402.54 257.699 1399.82 265.417C1393.2 284.98 1420.83 330.773 1439.64 363.619C1451.45 384.491 1475.45 402.808 1470.91 431.114C1461.7 489.022 1382.04 460.522 1417.2 609.147C1432.12 671.92 1551.08 662.217 1598.43 660.505C1627.75 659.441 1696.38 660.44 1701.31 655.484C1707.54 649.192 1700.66 554.494 1700.14 526.344C1698.71 435.836 1701.57 385.931 1699.36 318.06C1697.03 248.281 1698.45 181.836 1701.05 112.161C1702.09 84.6081 1708.96 8.92732 1699.62 5.58045C1682.11 -0.620357 1610.89 5.77522 1583.77 5.77522C1517.61 5.76225 1482.46 5.39881 1420.44 5.23017C1352.08 5.03558 1264.51 -4.07097 1260.36 9.18681C1257.5 17.9043 1256.6 172.808 1256.34 219.314C1256.08 270.139 1254.91 312.819 1255.82 363.619C1257.89 471.445 1246.09 630.162 1252.31 655.484C1254.26 663.41 1499.71 670.921 1561.85 661.866C1685.48 643.848 1825.59 482.394 1919.77 596.213" stroke="black" stroke-width="3" stroke-miterlimit="1.5" stroke-linecap="round" stroke-linejoin="round"/>
</svg>
