<svg width="1920" height="267" viewBox="0 0 1920 267" fill="none" xmlns="http://www.w3.org/2000/svg">
<path d="M-1 196.5C41.2601 144.056 103.115 16.4322 177.504 2.82103C246.828 -9.89145 315.718 129.018 401.54 143.05C518.045 162.082 582.448 31.1598 692.874 31.6381C845.271 32.2904 1027.63 192.291 1105.78 224.427C1122.86 231.472 1161.21 224.427 1161.21 224.427L1166.85 231.124C1166.85 231.124 1251.08 228.79 1262.66 226.036C1274.1 223.296 1267.58 212.831 1264.4 207.308C1261.07 201.785 1201.59 206.366 1201.59 206.366C1201.59 206.366 1188.85 206.743 1187.11 197.031C1185.38 187.305 1180.89 144.079 1180.89 144.079C1180.89 144.079 1177.42 178.274 1185.96 188.696C1194.64 199.118 1200.72 203.814 1200.72 203.814C1200.72 203.814 1204.48 173.736 1200.72 165.518C1196.96 157.299 1174.52 120.422 1168.88 116.204C1163.38 112 1141.09 96.3598 1142.54 90.7501C1143.84 85.1404 1148.04 83.9373 1152.24 83.14C1156.43 82.3283 1149.92 70.0507 1151.8 66.1659C1153.68 62.2812 1160.77 35.7257 1207.67 38.0885C1213.17 38.3639 1203.18 30.6523 1196.67 30.4204C1190.01 30.2029 1174.81 28.1155 1162.8 33.5512C1150.79 38.987 1139.5 61.1941 1151.22 76.4288C1154.55 80.6035 1151.95 82.1689 1151.95 83.2126C1151.8 84.2707 1143.99 76.0956 1143.55 73.3269C1143.12 70.5438 1123 80.6471 1119.82 91.0838C1116.63 101.521 1110.99 121.814 1125.61 130.41C1127.92 131.816 1136.17 98.6359 1155.13 98.6359C1156.87 98.6359 1166.56 102.463 1137.04 117.335C1135.59 118.089 1121.55 128.946 1122.57 151.53C1123.72 174.128 1122.86 213.512 1126.62 219.049C1127.34 219.934 1160.34 219.426 1160.34 219.426C1160.34 219.426 1152.81 200.568 1150.07 188.855C1147.46 177.158 1141.67 157.56 1139.21 153.196C1136.75 148.848 1137.91 112.377 1147.17 104.202C1156.43 96.041 1157.59 98.2444 1158.6 97.8095C1159.62 97.3747 1187.11 126.162 1186.97 138.31C1186.83 150.471 1189.29 123.597 1185.67 115.102C1182.05 106.594 1167.72 96.4759 1165.41 92.6781C1163.09 88.8803 1164.68 79.2844 1165.84 77.4869C1166.85 75.675 1164.68 69.529 1166.85 66.2675C1169.02 63.0205 1176.84 63.3104 1179.01 68.8042C1179.3 69.6014 1183.35 69.2536 1183.35 69.2536C1183.35 69.2536 1191.89 58.3384 1193.19 57.773C1194.5 57.2222 1201.44 39.7263 1208.39 39.7263C1208.39 39.7263 1215.05 46.8581 1214.76 53.8884C1214.47 60.9186 1214.61 66.2096 1214.32 68.5144C1214.03 70.8336 1221.13 75.1822 1221.7 77.8638C1222.14 80.56 1215.77 81.4732 1215.34 81.8501C1215.05 82.2125 1216.06 92.5912 1215.48 94.9105C1215.05 97.2152 1212.44 100.926 1208.97 101.578C1205.5 102.216 1197.82 100.274 1196.23 100.549C1194.64 100.824 1189.29 104.811 1188.42 109.725C1187.26 117.349 1191.31 130.946 1192.18 128.627C1191.02 121.872 1190.3 115.422 1190.44 109.551C1196.23 112.943 1200.86 117.552 1204.05 123.887C1204.05 123.887 1197.68 131.236 1198.98 138.368C1200.14 145.499 1210.85 167.663 1209.69 176.505C1208.53 185.333 1198.84 191.349 1203.76 195.828C1208.82 200.307 1213.74 194.349 1222.57 193.581C1231.4 192.812 1245.73 193.131 1248.62 193.537C1251.52 193.943 1251.37 204.742 1251.37 204.742C1251.37 204.742 1251.95 195.581 1253.98 194.146C1256.15 192.711 1262.23 191.493 1267.58 187.29C1273.08 183.086 1279.02 186.783 1282.34 184.623C1285.67 182.477 1287.41 182.477 1287.41 182.477C1287.41 182.477 1289.29 185.913 1287.7 187.667C1286.11 189.435 1274.38 192.102 1270.04 204.597C1269.61 205.902 1280.17 210.193 1283.65 207.395C1287.12 204.597 1290.45 192.784 1290.45 192.784C1290.45 192.784 1238.35 211.526 1226.91 210.482C1225.18 210.337 1216.49 171.345 1216.49 171.345C1216.49 171.345 1214.76 160.314 1222.14 157.676C1229.52 155.038 1240.09 158.299 1240.09 158.299L1239.36 187.189C1239.36 187.189 1236.18 178.085 1239.94 164.532C1243.7 150.993 1239.36 135.932 1240.52 132.511C1241.53 129.091 1246.16 113.928 1256.29 108.188C1266.42 102.433 1279.59 102.448 1282.2 95.9106C1282.49 95.1423 1284.37 112.16 1289.29 119.683C1289.58 120.147 1301.16 110.826 1305.21 110.826C1309.26 110.826 1290.02 95.8526 1289.44 93.0695C1289 90.2864 1291.17 82.082 1293.92 79.3569C1295.22 78.1538 1296.67 80.1687 1298.99 81.1833C1301.45 82.198 1293.63 93.7364 1330.83 101.187C1332.56 101.535 1338.21 90.0401 1337.63 80.5021C1337.49 77.5015 1338.79 78.9944 1339.66 76.6896C1340.38 74.3848 1338.79 71.5583 1340.09 69.8913C1341.54 68.2099 1342.98 66.9489 1342.98 64.9631C1343.13 62.9772 1341.97 49.5686 1340.23 46.2057C1339.95 45.6404 1321.28 44.7128 1318.09 44.1039C1317.8 44.046 1318.09 49.6268 1317.37 52.2215C1315.49 58.672 1304.92 57.2223 1304.78 68.0504C1304.78 68.6012 1301.01 69.9347 1299.57 67.601C1297.98 65.2672 1299.13 62.5423 1296.82 60.2811C1294.65 58.0198 1290.16 60.3387 1290.16 60.3387C1290.16 60.3387 1289.44 70.8627 1291.61 76.5594C1293.78 82.2416 1285.09 62.8902 1297.98 36.639C1298.41 35.8562 1330.54 51.7142 1342.98 49.2934C1347.04 48.5252 1349.35 44.7272 1347.62 43.669C1346.02 42.6543 1328.95 31.4204 1327.79 30.6376C1322.29 27.2747 1314.33 24.9264 1303.19 26.6224C1292.19 28.3184 1286.54 40.0309 1285.82 41.7849C1284.95 43.5388 1281.04 61.5998 1289.15 74.4718C1290.88 77.4433 1294.5 80.2265 1295.52 83.5459C1296.67 86.8509 1300.15 95.5339 1302.75 104.796C1305.21 114.059 1311.72 117.088 1315.05 124.684C1318.38 132.294 1320.26 139.252 1318.53 164.14C1316.79 189.029 1314.18 198.901 1314.18 198.901C1314.18 198.901 1325.76 145.224 1328.95 144.079C1332.27 142.948 1344.87 147.5 1348.92 149.964C1352.97 152.428 1351.81 155.168 1350.94 159.85C1349.93 164.532 1335.6 212.758 1334.3 215.106C1333 217.44 1331.84 211.076 1332.85 207.685C1333.87 204.307 1348.92 155.559 1347.47 154.777C1345.88 153.994 1331.55 145.673 1331.12 147.5C1330.83 149.312 1317.37 194.697 1317.37 199.365C1317.37 204.047 1327.64 210.555 1329.82 212.889C1332.13 215.237 1333 217.034 1333.14 218.701C1333.29 220.368 1320.26 219.832 1316.5 220.571C1312.88 221.31 1316.64 224.079 1313.32 224.456C1309.99 224.833 1308.54 223.34 1307.38 223.891C1306.23 224.441 1307.09 227.297 1305.36 227.384C1303.47 227.471 1292.91 223.427 1290.45 223.76C1288.13 224.108 1273.81 223.847 1273.81 223.847L1273.52 208.946L1297.25 208.511C1297.25 208.511 1305.21 216.962 1310.71 217.31C1316.36 217.643 1324.46 215.846 1326.34 216.005C1328.08 216.179 1308.97 201.539 1308.97 201.539C1308.97 201.539 1294.36 202.351 1291.9 202.351C1289.58 202.351 1290.3 199.814 1290.3 199.814L1396.1 189.45C1396.1 189.45 1379.17 179.506 1374.53 172.331C1369.9 165.141 1360.21 158.966 1357.17 157.168C1354.27 155.371 1349.5 152.138 1350.22 144.079C1351.09 136.019 1357.6 124.858 1352.39 114.088C1347.18 103.318 1341.68 101.52 1338.93 98.7226C1336.04 95.925 1338.93 114.276 1337.49 118.074C1336.04 121.857 1330.54 112.494 1328.37 109.899C1326.2 107.304 1317.51 118.277 1316.93 122.466C1316.36 126.641 1319.11 106.101 1325.18 103.709C1331.12 101.318 1342.7 99.7229 1348.48 100.317C1354.27 100.912 1372.07 118.958 1375.55 130.482C1378.88 142.006 1403.34 161.357 1408.84 162.952C1414.19 164.546 1412.16 165.749 1411.01 169.938C1409.85 174.128 1408.98 175.664 1402.61 174.273C1396.39 172.881 1399.43 172.316 1394.65 173.055C1389.73 173.809 1391.76 179.752 1394.36 181.796C1396.97 183.84 1401.6 181.245 1403.91 183.289C1406.08 185.333 1403.63 188.493 1406.23 189.797C1408.84 191.102 1410.72 191.102 1413.76 188.493C1416.65 185.898 1419.26 177.157 1417.37 174.548C1415.49 171.954 1411.58 171.113 1407.1 174.736C1405.94 175.664 1401.89 178.926 1400.01 188.913C1399.43 192.015 1404.06 164.387 1404.64 162.459C1405.07 160.531 1396.97 194.857 1396.97 194.857L1427.79 213.99L1379.31 223.383L1357.75 203.264L1409.56 193.682L1422.15 199.698L1355.29 208.903L1342.98 199.886C1342.98 199.886 1409.85 196.422 1414.91 193.334C1417.52 191.769 1420.7 191.769 1420.85 187.42C1420.99 183.071 1416.51 171.403 1418.97 168.272C1421.43 165.141 1430.4 159.328 1435.9 151.312C1441.4 143.311 1442.99 144.992 1448.06 138.237C1453.12 131.497 1453.12 127.279 1459.49 120.538C1465.71 113.783 1470.06 102.825 1479.61 98.1864C1489.3 93.5479 1498.57 95.3597 1500.74 91.1705C1501.46 89.5325 1504.64 97.9546 1505.22 103.709C1505.8 109.478 1510 122.046 1514.92 120.596C1519.98 119.147 1541.55 116.914 1541.55 91.649C1541.55 90.7213 1540.54 82.7052 1541.55 81.3861C1542.71 80.067 1547.92 77.5738 1547.34 68.3548C1547.19 66.6443 1544.44 65.1515 1542.71 66.775C1542.27 67.1374 1543.72 48.3367 1541.4 43.8141C1539.23 39.2915 1534.75 31.0583 1525.63 27.6374C1516.37 24.2019 1497.7 31.5654 1491.62 44.4954C1489.45 49.1629 1490.46 59.4402 1490.46 59.4402C1508.99 58.3531 1525.63 53.5407 1535.47 34.5227C1541.4 40.3788 1543.72 48.4527 1542.71 58.3385C1536.63 56.2367 1533.01 50.8446 1531.27 44.3506C1523.02 59.1069 1516.37 61.1072 1494.22 60.4983C1494.22 60.4983 1492.2 66.9488 1496.39 72.399C1497.12 73.2688 1494.22 68.5866 1490.61 68.3112C1486.84 68.0503 1486.7 78.2987 1493.79 85.532C1494.37 86.0683 1498.42 86.9526 1499.15 87.0541C1500.01 87.17 1499.43 91.3012 1500.45 93.9104C1501.6 96.5195 1512.03 105.405 1516.66 106.42C1519.99 107.13 1523.75 107.13 1526.5 105.84C1530.84 103.898 1542.42 88.0541 1541.26 87.6047C1541.26 87.6047 1541.4 93.6638 1558.34 98.8242C1575.27 103.999 1572.38 103.448 1579.32 107.261C1586.41 111.073 1590.32 128.337 1589.6 138.817C1588.88 149.283 1596.69 179.071 1594.23 187.507C1591.77 195.929 1588.44 162.677 1559.06 173.143C1555.01 174.534 1557.33 153.052 1561.38 145.702C1565.29 138.353 1567.46 133.816 1570.93 133.57C1574.26 133.338 1567.75 149.906 1558.48 158.371C1554 162.372 1557.9 176.752 1555.88 176.288C1553.71 175.824 1535.91 177.288 1532.14 180.738C1528.52 184.202 1531.85 192.726 1530.26 194.799C1528.38 197.176 1514.63 202.017 1510.58 202.089C1506.53 202.162 1503.92 205.641 1501.89 202.409C1499.72 199.176 1505.22 196.436 1500.3 198.799C1495.53 201.162 1497.41 204.771 1495.09 202.539C1492.63 200.292 1496.68 200.176 1493.36 199.553C1489.88 198.929 1486.26 198.683 1485.4 200.176C1484.67 201.669 1484.38 196.436 1485.83 193.334C1487.28 190.218 1492.49 180.897 1498.71 179.897C1504.93 178.897 1522.16 180.028 1525.77 179.404C1529.39 178.781 1509.56 179.897 1504.5 182.39C1499.43 184.869 1497.26 188.725 1494.51 189.594C1491.76 190.464 1480.04 189.725 1480.04 189.725C1480.04 189.725 1480.91 182.39 1477.87 175.041C1474.98 167.706 1471.5 161.241 1472.37 158.879C1473.38 156.516 1453.41 179.521 1449.5 181.144C1445.45 182.753 1443.13 173.925 1440.82 173.186C1438.36 172.432 1436.91 172.069 1434.74 175.795C1432.43 179.52 1434.31 179.158 1431.85 178.534C1429.39 177.911 1428.95 181.26 1428.37 183.26C1427.65 185.246 1428.37 183.014 1426.64 184.753C1424.9 186.492 1425.91 190.594 1425.91 193.581C1426.06 196.567 1433.44 199.046 1437.92 198.06C1442.41 197.06 1440.82 193.957 1441.11 192.58C1441.4 191.218 1442.7 198.176 1446.32 196.32C1449.94 194.45 1447.62 193.581 1447.77 192.088C1448.06 190.595 1451.82 196.813 1453.27 193.958C1454.86 191.088 1453.27 188.232 1453.27 188.232L1474.83 188.478L1433.87 205.264L1529.97 210.729L1467.16 243.837L1390.45 239.574L1443.43 214.077L1543 219.238C1543 219.238 1533.73 201.756 1534.02 195.625C1534.17 189.493 1541.26 182.144 1550.96 182.361C1551.54 182.376 1554.58 185.173 1554.58 187.724C1554.43 190.261 1559.06 194.625 1564.42 197.814C1569.77 200.988 1579.03 209.033 1576.86 210.135C1574.69 211.222 1569.34 212.918 1567.02 217.281C1564.56 221.644 1568.47 244.807 1566.3 239.053C1563.98 233.298 1562.97 231.66 1563.4 224.21C1563.98 215.368 1577.88 211.888 1573.68 209.496C1569.34 207.09 1560.51 191.102 1560.51 191.102C1559.5 188.464 1547.92 179.708 1547.34 170.75C1546.9 161.792 1548.93 160.966 1546.76 155.994C1544.59 151.022 1534.17 134.266 1531.13 132.613C1528.23 130.946 1526.21 132.106 1525.92 132.773C1525.49 133.439 1531.42 141.397 1530.84 147.369C1530.12 153.341 1530.55 151.341 1530.55 151.341C1530.55 151.341 1510.29 146.181 1505.66 144.079C1500.74 141.818 1500.16 143.093 1500.01 144.079C1499.43 146.224 1504.93 148.978 1505.8 150.674C1506.67 152.37 1507.83 155.139 1511.01 155.69C1512.6 155.936 1513.62 157.052 1513.91 158.154C1514.34 160.488 1515.5 162.314 1516.66 164.169C1517.81 166.039 1528.96 174.534 1530.7 177.505C1532.58 180.477 1546.9 204.51 1547.92 213.802C1549.07 223.093 1546.33 224.833 1548.79 231.124C1551.1 237.415 1560.94 253.563 1567.31 255.984C1576.72 259.608 1602.91 241.097 1609.86 231.124C1619.41 223.384 1617.97 224.224 1622.6 222.716C1627.37 221.209 1644.45 211.961 1646.04 209.134C1647.49 206.307 1626.21 211.584 1621.58 231.124C1617.96 245.924 1621.15 252.012 1616.52 263.478C1615.36 266.261 1651.25 264.377 1651.25 264.377C1651.25 264.377 1659.36 234.748 1662.83 227.21C1666.16 219.658 1676.87 210.41 1685.99 208.149C1694.96 205.888 1740.98 193.813 1749.23 192.682C1757.48 191.537 1761.1 191.16 1766.02 194.755C1770.94 198.335 1770.94 203.423 1769.35 207.018C1767.9 210.598 1756.03 236.067 1756.03 236.067C1756.03 236.067 1766.45 207.207 1760.38 200.785C1754.3 194.378 1736.06 201.915 1729.11 201.915C1727.09 201.915 1731.14 175.882 1729.11 170.229C1727.09 164.561 1721.16 136.585 1714.06 130.482C1706.83 124.38 1693.08 112.117 1684.68 111.928C1676.14 111.74 1639.82 124.96 1632.73 130.482C1625.64 136.005 1638.37 113.305 1655.74 105.927C1673.11 98.5634 1678.32 101.81 1681.06 102.1C1683.67 102.39 1681.35 108.261 1681.35 108.261C1681.35 108.261 1670.36 98.201 1671.37 88.4746C1672.38 78.7482 1672.38 91.1562 1664.28 93.1711C1656.32 95.1859 1639.67 99.1429 1629.4 79.5162C1625.64 72.5149 1621.29 72.254 1618.54 73.0803C1615.07 74.0805 1616.37 80.5166 1616.52 83.0968C1616.66 85.677 1612.32 84.5319 1612.32 84.5319C1612.32 84.5319 1613.19 73.7906 1611.02 71.3699C1608.85 68.9347 1607.4 71.225 1606.82 67.0648C1606.24 62.9191 1607.69 56.4107 1604.22 54.3958C1600.6 52.381 1594.37 55.0624 1592.06 51.2646C1589.89 47.4668 1603.35 30.2462 1622.02 27.3327C1640.83 24.4336 1662.4 27.2168 1665.29 37.6245C1666.74 42.3211 1672.96 43.6545 1673.39 49.4817C1673.83 55.2944 1672.24 77.8783 1672.24 77.8783C1672.24 77.8783 1678.89 54.2942 1658.92 38.2913C1657.76 37.4071 1623.17 59.3531 1608.7 51.714C1604.65 49.6267 1598.28 62.0058 1600.02 75.675C1600.31 77.371 1603.06 76.3564 1604.65 79.7628C1606.1 83.1692 1604.51 94.7511 1605.95 97.1428C1607.4 99.5201 1612.9 106.231 1614.64 109.058C1616.52 111.899 1614.78 116.566 1615.79 119.741C1616.81 122.915 1619.7 123.263 1622.89 123.147C1626.07 123.032 1630.41 118.611 1633.02 118.611C1635.77 118.611 1639.24 119.814 1637.36 123.51C1635.62 127.206 1623.75 136.28 1622.74 140.687C1621.87 145.094 1605.52 179.158 1600.16 180.724C1594.81 182.289 1572.81 214.266 1572.81 231.124C1572.81 247.982 1576.57 252.664 1584.53 251.548C1592.64 250.446 1619.41 210.019 1630.27 202.872C1640.98 195.726 1659.21 198.437 1665.15 168.866C1671.08 139.281 1652.12 130.41 1649.37 127.699C1646.77 124.989 1683.82 123.51 1694.67 127.206C1705.52 130.903 1716.38 132.135 1717.39 153.82C1718.26 175.519 1717.83 215.933 1717.83 215.933C1717.83 215.933 1734.04 209.525 1740.98 209.525C1747.78 209.525 1755.02 210.758 1753.28 223.34C1751.55 235.908 1736.78 263.507 1736.78 263.507C1736.78 263.507 1789.03 262.376 1809.58 263.202C1843.59 264.565 1900.41 215.715 1924 187.189" stroke="black" stroke-width="3" stroke-miterlimit="1.5" stroke-linecap="round" stroke-linejoin="round"/>
</svg>
