<svg width="1920" height="505" viewBox="0 0 1920 505" fill="none" xmlns="http://www.w3.org/2000/svg">
<path d="M-4.5 428.636C21.4174 437.15 34.676 442.062 58 428.636C102.5 396 133.145 276.961 236.647 292.371C299.978 301.799 317.117 367.718 365.613 399.097C410.431 428.096 483.165 439.898 519.052 428.636C559.974 415.795 602.518 382.075 638.788 381.544C672.955 381.044 697.428 400.231 740.744 459.621C764.462 492.135 795.943 517.946 867.573 492.617C907.967 478.33 1005.88 427.469 1080.48 417.662C1198.44 402.153 1494.02 437.669 1575.35 399.565C1590.62 392.414 1597.4 388.905 1599.76 378.4C1602.16 367.75 1599.51 344.64 1589.73 335.665C1579.93 326.692 1557.15 320.451 1541.01 324.555C1517.49 330.537 1452.35 357.98 1448.55 371.563C1444.76 385.146 1492.58 402.606 1518.28 406.052C1551.21 410.468 1625.68 406.371 1646.13 398.057C1659.16 392.763 1647.83 365.722 1641.01 356.178C1634.16 346.635 1617.88 343.268 1605.11 340.794C1587.45 337.374 1558.43 334.564 1535.04 335.665C1510.83 336.805 1483.61 343.642 1459.83 347.631C1437.3 351.41 1415.12 358.742 1392.32 359.597C1369.54 360.451 1327.52 356.89 1323.1 352.76C1318.69 348.628 1350.47 336.404 1365.83 334.81C1385.07 332.817 1422.1 342.36 1438.48 340.794C1448.39 339.845 1460.6 334.743 1464.1 325.41C1474.36 298.056 1490.16 204.044 1500 176.67C1503.13 167.946 1513.87 162.166 1523.07 161.158C1546.71 158.574 1622.77 152.859 1641.86 161.158C1657.12 167.8 1641.15 194.678 1637.58 210.95C1633.42 229.874 1620.14 262.66 1616.93 274.702C1616.19 277.476 1616.39 282.849 1618.34 283.199C1620.31 283.547 1627.12 279.083 1628.7 276.796C1630.09 274.772 1630.14 268.757 1627.79 269.481C1624.48 270.497 1613.87 279.438 1608.88 282.893C1605.27 285.4 1599.64 287.897 1597.92 290.209C1596.61 291.968 1596.38 296.404 1598.54 296.767C1602.24 297.386 1614.93 295.683 1620.08 293.922C1623.9 292.614 1630.85 287.35 1629.42 286.2C1628.01 285.047 1617.08 284.755 1611.54 287.012C1605.24 289.586 1593 298.121 1591.63 301.644C1590.27 305.167 1598.94 307.992 1603.42 308.147C1609.31 308.35 1623.74 304.767 1626.99 302.864C1629.11 301.626 1625.38 296.708 1622.93 296.727C1619.04 296.76 1607.95 300.411 1603.63 303.054C1600.32 305.074 1596.8 310.719 1596.97 312.586C1597.15 314.451 1602.04 314.208 1604.67 314.25C1609 314.319 1620.03 314.145 1622.98 313.001C1624.74 312.32 1624.18 307.84 1622.36 307.383C1620.28 306.863 1613.92 308.216 1610.49 309.88C1607.06 311.545 1603.25 314.428 1601.76 317.371C1600.25 320.315 1599.53 324.749 1601.47 327.538C1603.68 330.754 1609.64 336.458 1615.11 336.672C1622.36 336.956 1638.3 332.254 1645.08 329.24C1649.66 327.198 1654.48 323.455 1655.73 318.587C1656.96 313.715 1653.66 302.114 1652.5 300.007C1651.38 297.959 1648.89 303.619 1648.79 305.953C1648.66 308.802 1650.64 313.42 1651.76 317.102C1653.78 323.79 1662.08 340.636 1660.92 346.087C1659.78 351.474 1650.25 350.816 1644.83 349.802C1634.36 347.843 1610.41 340.022 1598.13 334.328C1588.2 329.724 1582 317.074 1571.17 315.629C1557.39 313.799 1532.08 320.401 1515.57 323.337C1500.93 325.94 1486.95 333.195 1472.08 333.247C1446.21 333.339 1377.32 326.549 1360.35 323.888C1356.42 323.273 1366.31 317.742 1370.26 317.281C1386.77 315.355 1441.91 324.335 1459.42 312.326C1476.95 300.318 1481.74 267.324 1475.39 245.231C1468.14 220.037 1436.36 176.432 1415.94 161.158C1398.97 148.471 1367.01 157.229 1352.85 153.593C1344.39 151.425 1338.07 140.096 1330.9 139.336C1323.73 138.574 1313.55 143.839 1309.81 149.028C1306.05 154.215 1309.79 163.448 1308.36 170.464C1306.9 177.602 1298.98 185.114 1301.04 191.861C1303.11 198.608 1316.34 209.635 1320.76 210.95C1324.93 212.195 1328.36 203.395 1327.5 199.744C1326.67 196.093 1318 189.924 1315.69 189.046C1313.86 188.36 1313.16 192.608 1313.58 194.475C1314.03 196.34 1315.95 201.079 1318.28 200.24C1322.78 198.618 1335.92 188.672 1340.62 184.743C1343.15 182.617 1346.15 179.019 1346.41 176.67C1346.66 174.319 1343.46 170.642 1342.18 170.642C1340.9 170.642 1336.79 175.665 1338.71 176.67C1340.63 177.674 1349.79 179.254 1353.7 176.67C1357.62 174.084 1361.48 164.876 1362.17 161.158C1362.65 158.507 1359.97 154.362 1357.79 154.362C1355.59 154.362 1350.48 158.914 1349.01 161.158C1347.77 163.016 1347.73 167.381 1348.91 167.833C1350.09 168.284 1355.26 165.144 1356.08 163.87C1356.85 162.657 1355.09 159.539 1353.81 160.189C1352.26 160.976 1347.84 165.098 1346.74 168.588C1345.41 172.754 1348.28 180.191 1345.89 185.186C1342.08 193.127 1332.07 206.539 1323.89 216.228C1305.08 238.5 1253.03 301.122 1233.01 318.821C1225.66 325.326 1211.11 325.72 1203.76 322.421C1196.42 319.121 1190.35 308.022 1188.92 299.023C1187.49 290.023 1190.1 277.491 1195.22 268.424C1200.77 258.6 1213.74 247.052 1222.21 240.076C1229.27 234.271 1243.42 235.32 1246.06 226.577C1248.75 217.653 1241.25 193.879 1238.41 186.529C1237.16 183.335 1229.02 179.053 1228.95 182.479C1228.89 186.551 1233.68 203.901 1237.95 210.95C1241.69 217.118 1247.6 226.502 1254.61 224.778C1264.13 222.432 1285.76 203.819 1295.1 196.88C1300.63 192.761 1309.51 189.094 1310.56 183.139C1311.63 177.187 1308.5 164.82 1301.45 161.158C1294.41 157.495 1274.09 163.679 1268.35 161.158C1263.7 159.125 1265.48 150.888 1266.9 146.027C1268.82 139.485 1276.74 130.482 1279.85 121.908C1283.38 112.253 1286.73 96.3789 1288.01 88.1067C1288.82 82.8863 1288.39 74.0691 1287.54 72.2666C1286.68 70.4657 1282.74 75.0113 1282.86 77.2998C1282.97 79.6687 1286.7 85.0007 1288.23 86.4831C1289.13 87.3614 1291.39 87.3006 1291.98 86.1925C1293.05 84.1946 1295.76 78.1584 1294.66 74.4909C1293.58 70.8219 1288.16 63.8153 1285.4 64.1814C1282.64 64.5475 1278.57 72.6507 1278.08 76.6842C1277.61 80.7193 1279.87 85.1763 1282.48 88.3874C1285.07 91.5968 1290.72 96.7171 1293.69 95.9438C1296.66 95.1723 1299.55 87.5945 1300.27 83.7547C1300.95 80.1234 1297.48 76.5626 1298.01 72.9067C1298.75 67.7848 1302.44 58.0746 1304.69 53.0265C1306.38 49.2393 1310.38 41.3249 1311.52 42.6251C1312.65 43.9253 1312.98 55.6269 1311.52 60.8292C1310.1 65.8625 1305.72 73.2729 1302.73 73.831C1299.76 74.3892 1295.92 66.8885 1293.64 64.1814C1291.92 62.1376 1290.98 58.7247 1289.08 57.5903C1287.17 56.4576 1282.83 59.5898 1282.22 57.3834C1280.92 52.731 1279.3 36.1176 1281.33 29.6775C1283.05 24.247 1290.33 20.1593 1294.48 18.7442C1298.25 17.4523 1302.87 19.0102 1306.23 21.1854C1310.01 23.6265 1316.44 30.4688 1317.1 33.3909C1317.75 36.2178 1312.7 39.9 1310.22 38.7164C1307.74 37.5328 1303.64 30.4311 1302.24 26.2892C1300.91 22.3641 1299.44 17.2717 1301.8 13.862C1304.54 9.90567 1311.98 3.66256 1318.66 2.5446C1326.6 1.21324 1340.11 2.32291 1349.5 5.87377C1358.89 9.42463 1368.18 18.1155 1375 23.8481C1380.78 28.6876 1390.91 36.3114 1390.55 40.2694C1390.17 44.2274 1378.98 45.9445 1372.79 47.5927C1366.55 49.2557 1359.69 50.5181 1353.04 50.2555C1345.92 49.9731 1334.07 48.2937 1330.08 45.8986C1327.21 44.1716 1325.86 36.6512 1329.13 35.8829C1333.82 34.7781 1350.07 36.7727 1358.25 39.2713C1365.57 41.5154 1374.84 43.9352 1378.12 50.8695C1381.46 57.9236 1379.45 74.7963 1378.27 81.6009C1377.57 85.6853 1371.8 88.3332 1371.02 91.7002C1370.23 95.0672 1373.18 98.8003 1373.54 101.8C1373.87 104.411 1374.28 107.276 1373.23 109.689C1370.01 117.06 1358.87 138.71 1354.29 146.027C1352.29 149.248 1349.42 152.49 1345.77 153.593C1341.62 154.854 1334.28 155.987 1329.36 153.593C1321.12 149.573 1302.7 136.896 1296.23 129.473C1291.59 124.149 1290.56 113.408 1290.56 109.057C1290.56 106.38 1296.04 100.706 1296.23 103.377C1296.92 113.056 1293.59 154.68 1294.66 167.128C1295.04 171.63 1301.06 177.267 1302.65 178.068C1304.26 178.868 1305.77 173.401 1304.26 171.932C1302.09 169.836 1294.81 166.797 1289.65 165.484C1282.6 163.688 1271.25 161.736 1261.93 161.158C1250.24 160.437 1232.75 158.574 1219.62 161.158C1206.65 163.711 1189.38 170.047 1183.14 176.67C1177.6 182.547 1183.28 192.884 1182.16 200.884C1180.94 209.622 1175.79 219.457 1175.84 229.094C1175.92 241.741 1178.29 263.547 1182.65 276.759C1186.54 288.505 1195.62 301.726 1202.1 308.373C1207.03 313.418 1214.69 315.053 1221.55 316.642C1230.32 318.67 1247.65 320.938 1254.63 320.533C1258.22 320.324 1263.23 315.994 1263.37 314.211C1263.54 312.426 1258.19 309.67 1255.59 309.833C1253 309.995 1248.7 312.159 1247.81 315.183C1246.76 318.83 1246.57 326.891 1249.28 331.721C1255.23 342.347 1274.21 368.808 1283.51 378.949C1289.26 385.217 1298.17 392.839 1305.1 392.563C1312.01 392.285 1319.72 383.774 1325.01 377.289C1330.95 370.01 1336.68 354.214 1340.7 348.892C1342.54 346.464 1348 343.882 1349.1 345.349C1350.22 346.819 1349.88 354.423 1347.31 357.701C1344.02 361.918 1335.63 366.789 1329.33 370.657C1322.48 374.871 1310.19 378.099 1306.18 382.981C1302.57 387.356 1301.04 396.132 1305.23 399.954C1310.58 404.841 1326.67 410.45 1338.29 412.304C1353.11 414.668 1383.57 414.824 1394.16 414.139C1397.36 413.932 1403.22 411.058 1401.76 408.2C1398.51 401.909 1382.37 387.492 1374.71 376.403C1367.22 365.555 1359.41 349.516 1355.83 341.661C1354.08 337.821 1350.79 331.432 1353.24 329.271C1355.69 327.111 1369.74 328.455 1370.51 328.695C1371.28 328.935 1361.82 331.909 1357.85 330.711C1353.86 329.511 1346.05 324.762 1346.63 321.5C1347.2 318.238 1355.41 312.208 1361.3 311.138C1373.89 308.851 1411.34 310.818 1422.21 307.781C1427.18 306.39 1427.5 297.978 1426.53 292.909C1425 284.993 1414.68 271.94 1413.1 260.288C1410.87 243.732 1414.84 203.696 1413.1 193.577C1412.41 189.606 1403.52 195.647 1402.61 199.574C1401.28 205.319 1402.05 219.05 1405.19 228.056C1408.42 237.409 1416.43 246.482 1422.06 255.688C1429.3 267.498 1439.71 287.598 1448.55 298.914C1456.02 308.449 1463.16 322.57 1475.23 323.586C1492.71 325.057 1535.48 309.38 1553.46 307.741C1563.48 306.827 1576.04 310.713 1583.07 313.759C1588.43 316.086 1590.94 323.509 1595.64 326.019C1600.32 328.511 1606.08 329.733 1611.28 328.813C1616.68 327.866 1624.49 325.52 1627.96 320.334C1631.75 314.633 1628.04 301.019 1634.1 294.603C1640.53 287.781 1655.53 282.127 1666.55 279.398C1677.43 276.701 1690.13 273.452 1700.16 278.228C1710.21 283.005 1722.24 300.403 1726.77 308.053C1729.51 312.669 1730.38 320.577 1727.36 324.136C1724.34 327.694 1714.98 330.179 1708.65 329.399C1702.31 328.62 1690.18 322.577 1689.34 319.458C1688.52 316.338 1698.39 308.813 1703.67 310.685C1709.71 312.829 1720.14 323.629 1725.6 332.323C1731.97 342.452 1741.43 361.659 1741.87 371.456C1742.25 379.404 1736.26 390.476 1728.33 391.105C1718.02 391.923 1689.99 383.171 1680.05 376.362C1672.24 370.997 1669.55 357.094 1668.76 350.247C1668.14 344.836 1670.08 336.772 1675.31 335.276C1680.78 333.717 1694.45 337.773 1701.51 340.891C1707.84 343.688 1713.56 348.382 1717.64 353.973C1725.01 364.03 1734.37 390.946 1745.64 401.234C1756.02 410.711 1771.22 414.737 1785.23 415.702C1879.43 422.19 1878.01 261.28 1920 261.28" stroke="black" stroke-width="3" stroke-miterlimit="1.5" stroke-linecap="round" stroke-linejoin="round"/>
</svg>
