<svg width="1920" height="463" viewBox="0 0 1920 463" fill="none" xmlns="http://www.w3.org/2000/svg">
<path d="M1427.88 344.942C1427.88 344.942 1386.56 369.775 1378.64 375.024C1377.93 375.519 1380.2 375.972 1380.9 376.439C1385.15 378.901 1395.05 384.943 1404.82 390.773C1413.59 396.008 1422.08 401.074 1425.9 403.168C1426.89 403.72 1428.31 403.465 1429.3 402.927C1437.5 398.541 1459.15 383.995 1475.28 376.793C1496.22 367.426 1541.65 352.441 1555.09 346.682C1556.5 346.102 1555.8 343.781 1555.8 342.296C1555.94 332.589 1555.23 297.795 1555.65 288.442C1555.79 287.126 1557.78 286.871 1559.05 286.206C1567.12 281.537 1604.19 260.44 1604.19 260.44" stroke="black" stroke-width="3" stroke-miterlimit="1.5" stroke-linecap="round" stroke-linejoin="round"/>
<path d="M1921.23 346.783C1890.39 275.582 1865.34 323.521 1833.22 350.137C1800.82 377.078 1770.54 376.738 1743.94 379.625C1720.45 382.186 1688.05 376.71 1673.9 367.456C1666.96 362.885 1658.05 358.145 1655.93 350.08C1652.67 337.529 1655.22 302.452 1654.23 292.179C1654.09 290.227 1651.4 289.477 1649.7 288.444C1641.49 283.393 1606.12 262.918 1605.13 261.842C1604.84 261.375 1604.99 259.267 1604.99 257.98C1605.13 248.344 1604.7 213.549 1605.27 203.984M1605.27 203.984C1605.41 202.3 1607.53 201.48 1609.09 200.588C1616.87 195.678 1645.03 180 1652.53 174.595C1654.23 173.307 1653.38 170.336 1653.52 168.157C1653.8 158.649 1654.79 126.302 1654.51 117.501M1605.27 203.984C1605.69 194.716 1605.84 156.37 1605.98 146.536C1605.98 146.013 1605.41 145.249 1605.83 144.98C1613.9 140.155 1653.66 117.798 1654.51 117.501M1605.27 203.984C1605.27 204.861 1604.14 202.626 1603.43 202.173C1595.51 197.362 1566.07 180.142 1558.29 175.147C1557.44 174.553 1557.02 173.279 1557.02 172.204M1654.51 117.501C1654.51 116.341 1652.67 116.015 1651.68 115.407C1643.76 110.639 1615.32 93.3759 1607.25 88.8621C1606.4 88.2961 1604.99 87.8148 1604 88.3384C1596.07 92.4984 1567.07 108.926 1559.57 113.836C1558.43 114.572 1557.87 117.062 1559 117.827M1654.51 117.501C1655.36 117.218 1619.14 138.726 1610.79 143.254C1608.81 144.301 1606.26 145.617 1604.28 144.654C1595.65 140.409 1566.5 122.949 1559 117.827M1559 117.827C1559.42 127.264 1557.02 162.653 1557.02 172.204M1559 117.827C1559 116.27 1556.45 116.044 1555.04 115.492C1541.74 110.483 1492.35 93.4041 1479.48 87.7159C1477.5 86.8244 1477.92 83.5417 1477.78 81.3485C1477.36 71.8116 1477.5 39.4937 1476.79 30.4662M1557.02 172.204C1557.02 172.204 1492.5 197.136 1478.49 202.032M1557.02 172.204C1557.02 172.204 1491.65 196.414 1478.49 202.032M1476.79 30.4662C1476.65 28.8531 1474.53 27.9898 1473.25 27.155C1465.19 22.4148 1436.75 6.0011 1428.82 1.96843C1427.83 1.45904 1426.56 2.42153 1425.57 2.98752C1417.64 7.57203 1388.35 24.6507 1381.14 29.4474M1476.79 30.4662C1476.79 30.4662 1437.31 53.1766 1428.82 57.846M1476.79 30.4662C1476.79 30.4662 1437.17 52.6531 1428.82 57.846M1381.14 29.4474C1380.43 29.9285 1381.7 31.2726 1382.41 31.7395C1389.91 36.5787 1418.49 54.1529 1426.28 58.4968C1426.98 58.9355 1428.11 58.2847 1428.82 57.846M1381.14 29.4474C1381.14 28.938 1379.44 72.8163 1379.16 82.0985C1379.16 83.1314 1378.17 84.6029 1379.01 85.1972M1381.14 29.4474C1381.14 29.9568 1379.72 75.4197 1379.01 85.1972M1428.82 57.846C1427.69 58.596 1427.12 60.2655 1427.12 61.6664C1427.12 71.175 1428.11 106.28 1428.82 114.912M1428.82 114.912C1428.96 115.888 1430.52 113.935 1431.37 113.44C1439.72 108.686 1478.63 86.0604 1478.21 86.3151C1477.78 86.5556 1437.59 110.285 1428.82 114.912ZM1428.82 114.912C1427.83 115.463 1426.42 114.713 1425.43 114.105C1417.08 109.153 1386.66 90.5316 1379.01 85.1972M1379.01 85.1972C1378.87 86.4282 1377.88 87.6735 1376.75 88.1263C1363.31 93.4183 1312.23 112.393 1298.93 116.949C1297.94 117.275 1297.09 115.931 1296.24 115.407C1288.46 110.723 1259.87 93.1636 1252.09 88.8479C1251.52 88.48 1250.68 89.145 1249.97 89.5129C1242.19 93.9842 1212.9 110.921 1205.26 115.633C1204.41 116.086 1203.7 116.893 1203.7 117.77C1203.28 127.689 1202.71 165.341 1202.85 175.133C1202.85 175.869 1203.98 176.109 1204.55 176.463C1212.47 180.779 1241.76 197.221 1250.11 201.027C1251.67 201.692 1253.22 200.079 1254.64 199.272C1262.85 194.461 1291.29 176.534 1299.35 172.218C1300.48 171.581 1301.9 172.897 1303.17 173.393C1316.47 178.444 1365.57 197.885 1379.01 202.569M1379.01 202.569C1380.57 203.121 1382.41 202.301 1383.83 201.466C1392.17 196.754 1421.04 178.67 1428.82 174.27C1429.39 173.944 1430.1 174.708 1430.66 175.048C1438.16 179.604 1465.61 197.093 1473.53 201.579C1475.09 202.399 1476.93 202.583 1478.49 202.032M1379.01 202.569C1386.94 206.658 1418.35 225.647 1426.7 230.501C1427.41 230.925 1428.11 232.142 1428.82 231.732M1379.01 202.569C1378.02 202.046 1379.16 204.847 1379.16 205.979C1379.16 215.431 1378.87 249.886 1379.3 259.281C1379.44 260.541 1380.43 261.729 1381.56 262.366C1389.77 267.106 1420.9 282.643 1428.82 287.765M1478.49 202.032C1477.36 202.555 1478.06 204.635 1477.92 205.965C1477.78 215.629 1478.2 250.707 1477.78 260.045C1477.64 261.121 1476.08 261.517 1475.23 262.04C1467.03 266.667 1436.6 284.001 1428.82 287.765M1478.49 202.032C1478.91 201.692 1439.43 224.756 1431.23 229.708C1430.38 230.246 1428.82 230.699 1428.82 231.732M1478.49 202.032C1478.2 202.371 1437.45 226.992 1428.82 231.732M1428.82 287.765C1427.83 288.232 1428.82 285.628 1428.82 284.567C1428.82 275.228 1428.4 240.873 1428.82 231.732M1428.82 287.765C1430.38 288.713 1428.82 291.274 1428.82 293.043C1428.82 302.707 1428.4 336.383 1428.82 345.779C1428.96 347.335 1430.52 348.538 1431.79 349.415C1439.58 354.622 1467.59 371.757 1475.09 377.064C1476.37 377.941 1477.21 379.653 1477.21 381.195C1477.5 390.407 1477.36 423.234 1476.93 432.29C1476.79 433.705 1475.37 434.823 1474.1 435.53C1465.89 440.313 1435.75 456.925 1427.55 461C1426.56 461.467 1425.43 460.505 1424.44 459.967C1416.51 455.453 1387.51 439.209 1379.86 433.889C1378.31 432.757 1378.73 430.04 1378.73 428.059C1378.73 418.621 1380.29 386.049 1379.86 377.191C1379.86 375.833 1377.88 375.323 1376.61 374.856C1363.73 369.989 1315.2 353.334 1302.61 347.986C1300.91 347.264 1300.77 344.618 1300.77 342.779C1300.34 333.256 1300.2 299.919 1299.92 290.892C1299.92 290.665 1297.65 289.505 1296.52 288.812C1288.31 283.959 1259.03 266.158 1251.1 261.842C1250.39 261.446 1249.54 262.437 1248.84 262.875C1240.91 267.644 1211.48 285.487 1203.84 290.481C1203.13 290.934 1203.13 292.009 1202.99 292.83C1202.99 302.056 1203.84 336.949 1202.99 345.807C1202.85 347.505 1199.6 345.863 1197.9 345.977C1192.1 346.359 1171.72 347.165 1158.84 349.302C1081.02 362.093 856.888 470.126 731.38 422.781C615.918 379.285 511.069 225.449 387.683 195.664C297.832 173.987 227.366 223.596 139.072 332.662C73.2754 413.952 29.9769 444.416 -2.00159 414.603" stroke="black" stroke-width="3" stroke-miterlimit="1.5" stroke-linecap="round" stroke-linejoin="round"/>
<path d="M1303.39 348.913C1303.39 348.913 1266.17 370.831 1257.68 375.572C1256.13 376.449 1254.15 377.397 1252.59 377.34C1250.89 377.298 1249.33 376.194 1247.92 375.317C1239.85 370.209 1203.07 346.395 1203.77 346.734C1204.48 347.074 1252.59 377.34 1252.59 377.34C1252.59 377.34 1252.16 329.231 1251.46 319.199C1251.32 317.982 1249.48 317.798 1248.35 317.161C1240.56 312.535 1204.06 291.069 1204.62 291.409C1205.19 291.734 1243.25 314.699 1251.46 319.199C1252.02 319.539 1252.73 318.718 1253.44 318.378C1261.65 313.808 1300.7 291.819 1300.7 291.819L1251.88 262.77C1251.88 262.77 1252.31 166.311 1251.88 146.516C1251.88 145.256 1250.18 144.634 1249.05 143.983C1241.27 139.158 1204.48 117.141 1204.91 117.565C1205.33 117.99 1251.88 146.516 1251.88 146.516C1251.88 146.516 1291.5 122.348 1299.71 117.877C1300.27 117.551 1300.42 119.009 1300.42 119.66C1300.56 128.871 1300.42 158.373 1300.42 173.131" stroke="black" stroke-width="3" stroke-miterlimit="1.5" stroke-linecap="round" stroke-linejoin="round"/>
<path d="M1423.71 403.318C1423.56 422.024 1423.28 440.73 1423.14 459.436" stroke="black" stroke-width="3" stroke-miterlimit="1.5" stroke-linecap="round" stroke-linejoin="round"/>
<path d="M1558.34 286.759C1574.47 296.904 1606.73 317.18 1606.73 317.18C1606.73 317.18 1607.02 372.138 1607.02 372.435C1607.16 372.747 1607.02 328.26 1607.02 319.006C1607.02 318.27 1606.45 317.209 1607.02 316.827C1615.08 311.903 1653 291.001 1653 291.001V345.211C1653 345.211 1615.79 367.936 1607.02 372.336C1606.31 372.69 1605.46 372.011 1604.75 371.629C1596.69 367.143 1571.22 352.725 1558.34 345.508" stroke="black" stroke-width="3" stroke-miterlimit="1.5" stroke-linecap="round" stroke-linejoin="round"/>
</svg>
