<svg width="1920" height="481" viewBox="0 0 1920 481" fill="none" xmlns="http://www.w3.org/2000/svg">
<path d="M-1 237.092C123.856 254.298 187.106 446.519 255.738 471.862C390.309 521.549 607.274 295.096 841.94 307.746C1078.76 320.515 976.458 460.161 1034.11 475.837C1089.01 490.763 1140.85 407.551 1187.91 401.803C1232.43 396.368 1263.55 453.548 1316.51 441.358C1325.23 439.352 1335.7 424.517 1335.16 422.05C1334.63 419.582 1315.66 429.237 1313.29 426.555C1310.93 423.873 1322.72 413.089 1321.01 405.96C1316.51 387.187 1294.11 340.956 1286.26 313.925C1279.67 291.125 1267.19 254.821 1274.05 243.772C1280.91 232.724 1318.97 233.818 1327.44 247.634C1335.93 261.449 1323.59 301.353 1324.87 326.669C1326.12 351.164 1334.25 403.522 1335.16 399.524C1336.09 395.526 1329.26 314.27 1330.38 302.685C1331.35 292.842 1339.85 320.347 1341.92 330.019C1345.14 345.232 1344.98 378.309 1349.81 393.964C1353.41 405.639 1367.27 430.979 1370.9 423.949C1374.52 416.92 1370.83 375.83 1371.56 351.784C1372.38 324.818 1377.11 278.191 1375.84 262.154C1375.48 257.644 1367.44 257.596 1363.99 255.563C1360.96 253.788 1358.58 250.208 1355.09 249.961C1350.42 249.632 1334.71 254.63 1335.98 253.585C1337.25 252.542 1356.73 248.423 1362.67 243.7C1368 239.446 1368.58 229.42 1371.56 225.247C1373.7 222.239 1378.59 218.382 1380.46 218.656C1382.31 218.931 1383.24 224.084 1382.76 226.895C1381.88 232.002 1373.33 253.33 1375.18 249.302C1377.03 245.275 1391.71 219.316 1393.84 202.728C1396.27 183.874 1391.63 149.671 1389.73 136.175C1388.96 130.825 1383.65 116.521 1382.31 121.757C1380.31 129.584 1379.57 167.96 1377.78 183.132C1376.61 193.161 1375.38 203.796 1371.6 212.789C1367.84 221.782 1362.95 233.179 1355.13 237.092C1347.32 241.004 1334.73 237.641 1324.66 236.268C1312.59 234.62 1290.15 231.806 1282.66 227.205C1277.33 223.931 1279.04 214.877 1279.77 208.67C1281.22 196.656 1291.31 164.459 1291.31 155.122C1291.31 151.19 1283.14 151.552 1279.77 152.65C1276.42 153.749 1271.34 157.542 1271.13 161.713C1270.86 166.943 1277.24 176.291 1278.21 184.038C1279.15 191.845 1279.56 205.439 1276.89 208.554C1274.19 211.669 1264.48 207.466 1262.13 202.728C1257.78 193.985 1249.43 168.787 1250.79 156.094C1252.05 144.365 1264.14 134.828 1270.29 126.568C1275.57 119.474 1283.57 98.7065 1287.69 106.533C1293 116.639 1297.96 172.746 1302.18 187.201C1303.34 191.167 1312.52 197.369 1312.98 193.264C1314.39 180.699 1312.5 127.349 1310.61 111.806C1310.03 106.904 1304.8 101.975 1301.65 100.01C1298.87 98.2607 1291.77 103.304 1291.77 100.01C1291.77 92.9233 1296.44 68.6567 1301.65 57.4898C1306.25 47.6658 1316.75 36.4455 1323.06 33.0056C1328.01 30.3075 1335.52 32.8951 1339.53 36.8503C1345.21 42.4338 1353.63 56.2558 1357.1 66.5078C1360.53 76.6154 1359.48 88.9342 1360.4 98.3623C1361.21 106.594 1362.86 114.809 1362.6 123.077C1362.13 136.897 1359.76 188.432 1357.66 181.291C1355.55 174.153 1352.61 98.0877 1349.96 80.2372C1349.48 76.8686 1343.36 77.1861 1341.74 74.1973C1338.99 69.1613 1337.42 52.8159 1333.5 50.0305C1329.56 47.2468 1321.97 53.3705 1318.12 57.4898C1314.29 61.6092 1310.08 69.1239 1310.44 74.7448C1310.81 80.3674 1316.26 87.5968 1320.33 91.2221C1324.14 94.6389 1330.63 97.3031 1334.77 96.4935C1338.9 95.6856 1341.86 89.8971 1345.18 86.3716C1350.33 80.8881 1360.67 68.4087 1365.7 63.5939C1368.42 60.9761 1374.5 53.7824 1375.25 57.4898C1376.79 65.1757 1372.2 99.3253 1374.97 109.711C1376.64 116.031 1386.38 123.476 1391.78 119.804C1399.53 114.544 1416.5 88.5312 1421.46 78.1454C1424.42 71.9307 1418.77 60.006 1421.46 57.4898C1424.15 54.9736 1439.77 64.5498 1437.59 63.0447C1435.42 61.5414 1415.81 49.3903 1408.44 48.4648C1402.62 47.7336 1396.29 57.4025 1393.35 57.4898C1390.39 57.5772 1388.37 50.7741 1390.74 48.9855C1393.67 46.7617 1407.32 48.8695 1410.96 44.1492C1414.61 39.4307 1414.29 27.6558 1412.63 20.6725C1410.96 13.6892 1406.04 3.85449 1400.98 2.25312C1395.89 0.651743 1385.11 7.01443 1382.17 11.0607C1379.25 15.1087 1382.95 21.3787 1383.36 26.5341C1383.79 31.9302 1384.56 37.7865 1384.79 43.4359C1385.02 49.2672 1382.94 56.1309 1384.79 61.5271C1386.66 66.9233 1391.46 73.2717 1395.97 75.8111C1400.49 78.3487 1411.65 71.9289 1411.92 76.7634C1412.17 81.596 1400.1 95.757 1397.54 104.814C1395.16 113.251 1394.99 123.99 1396.55 131.098C1397.94 137.412 1402.99 146.223 1406.97 147.465C1410.92 148.704 1417.95 143.334 1420.35 138.537C1422.83 133.578 1422.83 121.511 1421.83 117.707C1421.19 115.225 1414.45 113.158 1414.4 115.724C1414.24 124.496 1416.95 153.788 1420.83 170.34C1424.49 185.844 1430.94 203.536 1437.72 215.034C1443.47 224.803 1457.04 233.302 1461.51 239.335C1463.94 242.623 1467.95 251.404 1464.49 251.238M1464.49 251.238C1461.01 251.072 1446.47 245.277 1440.69 238.343C1432.83 228.921 1423.51 207.596 1417.39 194.701C1412.21 183.774 1404.42 159.641 1404.01 160.978C1403.6 162.316 1412.85 192.066 1414.92 202.728C1416.32 210.018 1414.49 220.17 1416.4 224.953C1417.86 228.623 1425.99 229.028 1426.31 231.424C1426.65 233.823 1419.19 235.692 1418.37 239.335C1416.56 247.433 1414.36 266.45 1415.4 280.002C1416.81 298.434 1424.17 329.927 1426.81 349.93C1429 366.546 1426.81 390.927 1431.26 400.018C1434.61 406.828 1452.01 402.91 1453.58 404.481C1455.15 406.053 1444.42 406.746 1440.69 409.441C1435.65 413.079 1425.58 422.336 1423.33 426.303C1422.03 428.625 1424.72 432.618 1427.3 433.246C1430.03 433.907 1436.2 432.7 1439.69 430.269C1445.15 426.467 1455.81 417.376 1460.02 410.432C1463.88 404.057 1465.29 396.064 1464.97 388.612C1464.4 374.651 1458.2 341.63 1456.56 326.669C1455.52 317.439 1454.04 308.078 1455.06 298.848C1456.22 288.343 1461.92 271.571 1463.49 263.637C1464.29 259.57 1463.17 247.304 1464.49 251.238ZM1464.49 251.238C1466.63 257.685 1473.4 285.871 1476.38 302.32C1479.23 318.057 1480.36 334.059 1482.34 349.93C1484.47 367.122 1486.04 395.802 1489.27 405.473C1490.61 409.471 1497.54 408.831 1501.66 407.954C1506.7 406.878 1518.34 405.576 1519.52 399.027C1521.82 386.037 1517.86 352.667 1515.55 330.019C1513.26 307.6 1506.95 277.759 1505.63 263.14C1505.01 256.194 1508.56 247.597 1507.61 242.311C1506.83 237.944 1502.89 232.054 1499.97 231.424C1497.04 230.797 1493.48 236.334 1490.05 238.538C1485.4 241.544 1476.1 248.991 1472.03 249.457C1468.63 249.847 1465.77 243.702 1465.69 241.332C1465.61 238.962 1470.32 237.773 1471.53 235.237C1477.22 223.405 1494.3 186.811 1499.84 170.34C1503.5 159.509 1504.69 143.834 1504.87 136.415C1504.96 132.651 1500.91 126.85 1500.91 125.835C1500.91 124.822 1504.33 132.255 1504.87 130.333C1505.85 126.863 1509.13 113.146 1506.79 105.014C1504.42 96.7913 1495.85 83.7146 1490.66 80.9969C1485.67 78.3897 1480.23 87.3524 1475.67 88.7113C1471.73 89.8882 1466.92 91.1758 1463.33 89.1517C1458.2 86.2504 1446.74 75.3029 1444.83 71.2995C1443.47 68.4801 1448.77 65.4664 1451.87 65.1276C1456.24 64.6497 1466.38 72.9401 1471.05 68.4338C1476.43 63.2177 1483.74 43.0668 1484.26 33.8277C1484.69 26.1186 1478.57 16.5443 1474.13 12.9991C1469.82 9.56279 1461.57 9.76606 1457.61 12.5587C1453.63 15.3495 1451.26 23.5988 1450.34 29.7511C1449.3 36.5097 1450.44 46.3926 1451.44 53.1155C1452.3 58.9361 1454.12 66.7432 1456.29 70.0869C1457.86 72.5264 1461.57 73.5874 1464.44 73.1719C1467.74 72.6958 1472.44 66.67 1476.11 67.2211C1479.79 67.7721 1483.51 72.9187 1486.47 76.4781C1493.05 84.3994 1511.21 103.518 1515.63 114.743C1519.2 123.804 1514.16 134.17 1513 143.837C1511.75 154.198 1508.66 167.086 1508.15 176.901C1507.7 185.518 1511.02 194.662 1509.91 202.728C1508.81 210.689 1502.46 220.953 1501.45 225.304C1501.12 226.679 1502.41 229.024 1503.8 228.83C1505.21 228.633 1509.34 226.636 1509.91 224.127C1511.59 216.643 1512.6 186.315 1513.91 183.925C1515.19 181.534 1515.97 202.42 1517.67 209.786C1519.11 216.092 1520.96 222.419 1524.01 228.125C1527.06 233.846 1530.27 240.977 1535.99 244.112C1541.72 247.247 1554.67 247.873 1558.33 246.933C1561.06 246.227 1559.42 240.824 1557.85 238.47C1554.8 233.858 1543.96 227.055 1539.99 219.27C1534.62 208.782 1528.17 186.268 1525.65 175.553C1524.08 168.873 1523.69 159.757 1524.92 154.981C1525.87 151.291 1534.32 150.473 1533 146.899C1531.48 142.792 1518.31 136.929 1515.83 130.34C1513.35 123.752 1515.4 114.572 1518.11 107.371C1521.13 99.3895 1526.08 88.4474 1533.87 82.4502C1541.91 76.257 1558.77 74.3685 1566.35 70.2081C1571.65 67.2961 1575.16 58.1764 1579.27 57.4898C1583.39 56.8033 1591.58 68.432 1591.02 66.0941C1590.49 63.7563 1578.21 50.273 1576.05 43.4645C1574.19 37.6367 1574.73 30.2397 1578.1 25.243C1581.49 20.2481 1590.83 13.4396 1596.32 13.4877C1601.79 13.5377 1610.27 19.244 1611.01 25.5372C1611.99 34.0594 1604.05 56.3949 1602.2 64.6246C1601.42 68.0539 1600.52 71.4581 1599.85 74.9105C1599.12 78.5876 1600.97 84.1889 1597.89 86.6836C1594.48 89.412 1585.37 93.6152 1579.51 91.2756C1573.48 88.8646 1565.41 77.8441 1561.63 72.2143C1558.76 67.9273 1556.72 62.6524 1556.81 57.4898C1556.96 50.0804 1563.98 35.1651 1562.41 27.7609C1560.97 20.9168 1552.32 14.9767 1547.44 13.0668C1542.86 11.28 1537.35 13.9174 1533.03 16.2999C1528.43 18.8464 1521.77 23.4508 1519.82 28.3495C1517.86 33.2463 1519.56 40.1529 1521.29 45.6882C1523.05 51.3215 1526.53 58.9629 1530.4 62.146C1534.09 65.1865 1539.99 66.3295 1544.5 64.7905C1549.01 63.2516 1554.96 58.2138 1557.46 52.9157C1560.93 45.5616 1565.69 27.7057 1565.35 20.6725C1565.12 15.9754 1559.74 12.4427 1555.37 10.7165C1550.18 8.66397 1540.72 6.70243 1534.21 8.36443C1527.7 10.0264 1519.75 16.2768 1516.29 20.685C1513.34 24.4638 1513.28 30.3039 1513.48 34.8138C1513.67 39.3219 1514.33 48.6074 1517.47 47.7461C1520.59 46.883 1528.86 33.7563 1532.27 29.6423C1534.12 27.4168 1538.02 21.022 1537.92 23.0585C1537.79 25.0968 1534.64 36.0086 1531.57 41.8684C1528.24 48.215 1522.44 56.131 1517.93 61.1474C1514.1 65.4165 1508.63 69.5001 1504.53 71.961C1501.16 73.9922 1491.52 75.4616 1493.42 75.911C1495.33 76.3604 1510.59 73.7372 1515.97 74.6574C1519.88 75.3243 1521.8 81.2376 1525.76 81.4284C1532.69 81.7619 1546.9 77.5498 1557.6 76.6636C1568.4 75.7666 1581.63 73.4768 1590.59 76.0519C1599.01 78.47 1606.16 85.0717 1611.34 92.1174C1617.74 100.804 1625.86 120.131 1628.97 128.168C1630.45 131.966 1631.74 137.644 1630.06 140.34C1628.39 143.039 1621.97 144.948 1618.92 144.353C1615.87 143.759 1611.86 140.242 1611.79 136.774C1611.72 133.282 1617.28 123.474 1618.47 123.399C1619.67 123.325 1618.99 132.016 1618.92 136.328C1618.85 141.159 1618.23 147.024 1618.03 152.379C1617.73 160.404 1617 174.893 1617.14 184.478C1617.28 192.97 1619.69 203.662 1618.92 209.891C1618.37 214.373 1614.16 219.439 1612.57 221.85C1611.83 222.981 1609.65 223.038 1609.37 224.361C1609.03 225.957 1611.04 229.099 1610.51 231.424C1609.63 235.307 1604.77 244.066 1604.13 247.645C1603.77 249.553 1605.21 251.57 1606.64 252.895C1608.39 254.53 1612 259.058 1614.62 257.46C1618.42 255.14 1628.17 246.768 1629.46 238.971C1632.27 221.85 1631.77 170.299 1631.51 154.74C1631.45 151.463 1630.56 146.94 1627.85 145.608C1625.16 144.278 1617.82 144.353 1615.3 146.751C1612.79 149.148 1613.27 155.525 1612.79 159.99C1612.04 167.029 1612.06 179.383 1610.74 188.981C1609.4 198.643 1605.94 212.34 1604.8 217.97C1604.48 219.564 1605.52 222.604 1603.89 222.763C1599.26 223.22 1585 220.557 1576.98 220.709C1569.83 220.844 1560.17 222.991 1555.74 223.676C1553.98 223.951 1548.81 224.231 1550.5 224.817C1557.01 227.082 1586.07 231.619 1594.8 237.259C1601.2 241.396 1598.76 254.616 1602.88 258.658C1606.89 262.601 1617.83 256.142 1619.51 261.512C1623.07 272.848 1622.77 308.042 1624.27 326.669C1625.53 342.217 1628.55 364.155 1628.55 373.269C1628.55 376.318 1625.75 378.688 1624.27 381.353C1621.51 386.346 1614.05 395.223 1611.92 403.228C1609.78 411.235 1612.7 424.233 1611.43 429.385C1610.76 432.16 1606.14 436.331 1604.3 434.141C1601.84 431.207 1598.06 419.539 1596.71 411.789C1595.03 402.358 1595.43 386.585 1594.32 377.549C1593.5 370.79 1590.56 364.363 1590.04 357.574C1589.01 344.18 1589.81 314.537 1588.15 297.179C1586.73 282.417 1583.79 257.867 1580.06 253.428C1576.33 248.99 1567.63 263.352 1565.8 270.547C1563.27 280.455 1565.01 300.745 1564.85 312.873C1564.71 323.017 1564.37 334.668 1564.85 343.308C1565.25 350.493 1567.71 357.575 1567.71 364.708C1567.71 371.842 1565.64 378.956 1564.85 386.109C1563.89 394.748 1564.85 409.965 1562 416.544C1559.76 421.708 1551.47 421.567 1547.74 425.579C1544.01 429.592 1543.96 438.519 1539.63 440.619C1535.32 442.722 1523.48 443.191 1521.78 438.185C1520.09 433.18 1528.15 419.789 1529.49 410.591C1530.82 401.489 1529.33 392.177 1529.9 382.995C1531.18 362.304 1536.79 307.076 1537.2 286.447C1537.38 277.229 1529.9 266.737 1532.34 259.224C1534.76 251.711 1545.92 246.001 1551.8 241.368C1556.71 237.514 1561.4 231.629 1567.63 231.424C1574.39 231.203 1585.59 234.531 1592.38 240.03C1599.94 246.156 1610.49 256.818 1612.98 268.177C1619.13 296.3 1616.19 379.293 1629.31 408.763C1639.1 430.731 1668.53 446.135 1691.67 444.997C1714.83 443.861 1734.7 443.234 1768.18 401.946C1801.64 360.692 1866.68 313.162 1921.5 326.669" stroke="black" stroke-width="3" stroke-miterlimit="1.5" stroke-linecap="round" stroke-linejoin="round"/>
</svg>
