<svg width="1920" height="495" viewBox="0 0 1920 495" fill="none" xmlns="http://www.w3.org/2000/svg">
<path d="M-5 435.638C33.4501 418.158 71.1234 397.944 107.632 376.719C172.362 339.129 237.094 282.155 318.525 305.647C436.076 339.57 480.611 495.281 616.027 492.975C693.186 491.653 732.025 426.049 794.296 393.746C867.571 355.754 965.314 370.137 1018.39 379.181C1047.26 384.118 1074.45 389.716 1117.04 395.236C1159.77 400.756 1167.27 405.77 1178.28 400.756C1189.28 395.741 1188.25 390.221 1183.33 380.684C1178.28 371.161 1080.54 245.213 1080.54 245.978C1080.54 246.742 1075.49 224.17 1088.04 205.602C1100.6 187.047 1123.65 169.982 1133.61 168.984C1143.71 167.973 1155.36 167.325 1163.91 168.919C1172.45 170.513 1284.31 309.184 1284.31 309.184L1478.76 187.138L1468.53 175.203L1291.3 282.609L1284.83 272.839L1308.13 257.108C1308.13 257.108 1274.86 261.021 1267.48 245.978C1263.98 238.696 1274.21 233.979 1278.61 233.214C1283.01 232.45 1288.97 242.375 1293.63 241.417C1299.2 240.25 1313.18 231.556 1315.38 226.956C1317.58 222.369 1311.75 213.908 1306.45 213.882C1299.97 213.843 1283.27 226.179 1273.69 226.373C1264.11 226.555 1258.16 227.241 1250.91 213.39C1247.28 206.509 1254.01 194.77 1261.65 188.045C1262.95 186.943 1257.12 182.602 1258.03 181.099C1259.19 179.298 1265.79 175.242 1268.64 174.271C1270.84 173.48 1272.14 180.49 1274.34 178.806C1282.24 172.806 1288.32 172.69 1293.37 173.234C1301.91 174.141 1305.67 180.672 1307.61 186.386C1307.61 186.386 1299.97 193.616 1296.74 193.746C1293.5 193.875 1291.43 184.662 1287.41 185.569C1282.37 186.736 1268.38 196.273 1266.18 200.704C1264.11 204.98 1269.81 211.86 1274.6 212.197C1279.78 212.573 1289.36 204.863 1297.25 202.946C1305.15 201.028 1316.16 199.68 1321.85 200.704C1326.12 201.469 1334.8 206.885 1333.89 218.249C1332.73 235.21 1321.2 236.259 1319.65 242.751C1319.26 244.669 1322.37 248.012 1322.37 248.012L1359.27 224.546L1348.65 208.375L1448.59 148.615L1433.84 132.664L1331.43 193.746L1313.69 169.956L1541.94 38.955L1526.53 20.3092L1210.9 200.536L1201.32 188.628L1539.48 2L1656.51 126.742L1561.23 181.799C1561.23 181.799 1548.02 178.819 1542.71 180.983C1537.53 183.147 1537.15 196.312 1545.82 198.838C1554.49 201.365 1713.08 245.978 1713.08 245.978C1713.08 245.978 1733.41 249.502 1745.06 245.978C1756.58 242.453 1726.55 230.429 1719.04 226.671C1711.53 222.913 1554.75 181.592 1537.79 178.586C1520.96 175.579 1485.23 171.446 1485.23 171.446C1485.23 171.446 1496.49 185.44 1508.79 189.561C1521.22 193.694 1535.98 198.061 1535.98 198.061L1243.66 377.277C1243.66 377.277 1296.22 332.262 1285.34 317.089C1274.47 301.928 1169.86 347.422 1194.85 389.133C1219.97 430.83 1386.71 368.271 1397.59 373.959C1408.46 379.648 1395.65 333.441 1395.65 333.441C1395.65 333.441 1470.34 297.912 1568.35 338.028C1666.48 378.132 1700.92 408.997 1770.57 392.333C1840.35 375.67 1911.81 323.217 1921 312.722" stroke="black" stroke-width="3" stroke-miterlimit="1.5" stroke-linecap="round" stroke-linejoin="round"/>
</svg>
