<svg width="1920" height="560" viewBox="0 0 1920 560" fill="none" xmlns="http://www.w3.org/2000/svg">
<path d="M1918.75 468.168C1803.76 468.792 1861.12 366.329 1804.03 341.049C1768.58 325.328 1758.09 362.425 1704.18 380.27C1675.37 389.803 1637.13 389.073 1625.05 388.688C1610.18 388.197 1590.92 387.161 1583.75 386.484C1582.96 386.405 1581.89 385.369 1582.16 384.612C1582.56 383.775 1585.61 383.059 1586.01 381.465C1586.41 379.434 1586.14 375.185 1584.95 372.45C1583.22 368.799 1579.37 363.222 1575.65 359.531C1570.48 354.645 1561.58 348.364 1554.41 343.066C1547.11 337.702 1538.88 332.458 1531.71 327.306C1524.8 322.34 1517.1 316.259 1511.26 312.09C1506.48 308.704 1501.43 305.757 1496.79 302.331C1491.21 298.295 1482.84 291.377 1478.06 287.872C1474.75 285.509 1470.1 283.424 1467.84 281.3C1466.25 279.693 1465.05 276.865 1464.65 275.112C1464.39 273.665 1464.65 271.833 1465.58 270.784C1467.44 269.005 1471.82 266.163 1475.14 264.41C1479.79 262.034 1488.95 258.529 1493.47 256.524C1496.25 255.222 1499.97 254.081 1501.83 252.341C1503.56 250.801 1504.22 248.358 1504.62 246.114C1505.28 242.742 1505.28 236.78 1505.42 232.12C1505.68 224.498 1505.55 210.716 1506.21 200.386C1506.74 190.282 1507.67 177.257 1509 170.153C1509.8 165.785 1512.98 161.643 1513.91 157.766C1514.71 154.234 1514.45 150.516 1514.31 146.891C1513.91 141.341 1511.66 127.639 1511.66 124.439C1511.66 123.071 1513.78 126.391 1514.31 127.705C1514.84 129.391 1514.98 132.273 1514.98 134.583C1514.98 137.65 1513.65 145.046 1514.18 146.134C1514.84 147.223 1517.1 142.722 1518.56 141.102C1521.75 137.716 1529.05 130.547 1533.3 125.78C1537.02 121.544 1541.27 116.804 1543.66 112.489C1545.78 108.639 1546.98 104.204 1547.51 99.8755C1548.17 95.5337 1547.37 89.8907 1547.24 86.4783C1546.97 84.1017 1547.24 80.6896 1546.18 79.4016C1545.12 78.1137 1542.59 79.2954 1541 78.751C1539.27 78.1801 1537.15 77.3567 1535.69 75.9228C1534.23 74.3162 1532.9 71.4882 1531.71 69.0983C1530.38 66.1506 1528.78 60.9988 1527.46 58.2769C1526.53 56.2985 1525.07 54.2008 1523.87 52.7403C1522.94 51.532 1522.01 50.0716 1520.55 49.5272C1518.83 48.8766 1515.91 48.3455 1513.65 48.8766C1511.39 49.4343 1508.47 51.9039 1506.61 52.8732C1505.42 53.5238 1504.22 54.307 1502.89 54.6787C1501.57 55.0372 1500.1 55.5684 1498.91 55.0638C1497.05 54.307 1494 51.9835 1492.01 50.1645C1490.15 48.3853 1488.42 45.7297 1487.09 44.1099C1486.03 42.9149 1484.7 41.6934 1484.04 40.5117C1483.51 39.4628 1483.11 38.1083 1483.24 37.0328C1483.51 35.9574 1484.17 34.8686 1484.97 34.072C1486.16 32.8637 1488.82 31.3236 1490.68 29.8232C1492.94 27.8847 1496.25 24.9503 1499.04 22.4807C1502.1 19.7721 1510.06 12.8812 1508.87 13.5981C1507.81 14.3019 1498.64 23.596 1492.27 26.7428C1483.77 30.9517 1463.99 36.0903 1458.15 38.852C1456.82 39.5026 1457.62 41.8393 1457.48 43.3397C1457.22 45.0392 1456.69 47.1371 1456.69 49.0624C1456.55 52.395 1456.69 59.7109 1456.69 63.349C1456.69 65.8319 1456.42 68.8593 1456.69 70.8111C1456.82 72.3247 1457.62 73.7454 1458.28 75.0997C1459.08 76.6001 1460.41 78.6711 1461.47 79.8263C1462.4 80.7557 1463.99 80.8754 1464.52 82.0173C1465.19 83.3981 1465.32 86.0404 1465.19 88.0719C1465.19 90.2494 1464.52 93.1967 1464.39 95.0954C1464.12 96.5692 1464.12 98.1892 1463.86 99.4904C1463.46 100.672 1462.53 102.093 1462.53 102.903C1462.4 103.421 1462.66 104.018 1463.19 104.324C1463.72 104.802 1465.45 105.465 1466.38 105.757C1467.04 105.983 1467.84 106.129 1468.5 106.089C1469.7 106.01 1472.22 105.532 1473.42 105.319C1474.21 105.173 1475.14 104.748 1475.81 104.762C1476.47 104.788 1477.13 104.974 1477.67 105.425C1478.2 106.01 1478.86 107.338 1479.39 108.28C1479.92 109.223 1480.45 110.179 1480.98 111.148C1481.52 112.237 1482.18 113.711 1482.84 114.879C1483.38 115.994 1484.04 117.096 1484.7 118.172C1485.37 119.327 1486.16 120.854 1486.96 121.797C1487.76 122.673 1488.82 123.31 1489.88 123.895C1491.08 124.545 1492.54 125.514 1494 125.753C1495.59 126.006 1497.85 125.926 1499.57 125.421C1501.43 124.917 1503.56 124.04 1505.02 122.673C1507.01 120.854 1509.8 116.897 1511.52 114.441C1512.85 112.409 1514.05 110.219 1514.84 107.962C1515.77 105.651 1516.57 103.102 1516.97 100.593C1517.5 97.6582 1517.76 93.5024 1518.03 90.3689C1518.16 87.5142 1517.63 83.2389 1518.03 81.8049C1518.16 81.1809 1519.23 81.8979 1519.89 81.7917C1520.69 81.6589 1522.15 81.6588 1522.94 81.0082C1523.74 80.3443 1524.54 79.0562 1524.8 77.8479C1525.2 75.6439 1525.6 70.6517 1525.46 67.7439C1525.33 65.2478 1524.67 62.247 1524.14 60.3881C1523.74 58.994 1522.94 57.7062 1522.15 56.5378C1521.08 55.1835 1519.49 53.0325 1518.16 52.2492C1517.1 51.572 1515.51 51.4524 1514.18 51.8109C1512.85 52.1959 1511.13 53.5105 1510.06 54.5594C1509 55.542 1508.07 56.8165 1507.67 58.0778C1507.28 59.3392 1508.47 61.0388 1507.67 62.1408C1506.74 63.3093 1504.09 64.3714 1502.63 65.1017C1501.3 65.739 1499.18 66.7217 1498.38 66.5358C1497.58 66.3499 1498.25 64.8095 1497.98 64.0129C1497.58 63.0436 1497.05 61.5831 1496.12 60.7068C1495.06 59.7242 1493.2 58.6753 1491.74 58.0778C1490.41 57.5069 1488.82 57.1883 1487.36 57.082C1485.9 56.9758 1483.51 57.9318 1482.84 57.414C1482.05 56.9094 1482.71 55.1434 1482.84 54.0016C1482.84 52.78 1483.11 51.2797 1483.11 50.0582C1483.11 48.9163 1483.24 47.6947 1482.84 46.6458C1482.58 45.5968 1481.78 44.7206 1481.25 43.7912C1480.72 42.8751 1480.19 41.2684 1479.66 41.0427C1478.99 40.817 1478.33 42.0784 1477.67 42.4768C1476.47 43.1539 1474.21 44.5082 1472.35 45.1057C1470.5 45.7164 1468.24 45.8758 1466.38 46.1015C1464.65 46.3007 1462.93 46.4069 1461.2 46.4201C1459.08 46.4467 1455.36 46.553 1453.77 46.2078C1452.97 46.0087 1452.31 45.1321 1451.91 44.3355C1451.51 43.4193 1450.58 41.8924 1450.98 40.7107C1451.64 38.8784 1453.9 35.6387 1455.76 33.3549C1458.01 30.4339 1461.73 26.3977 1464.79 23.2376C1467.84 20.1573 1471.03 17.2228 1474.35 14.4478C1477.8 11.6196 1482.45 7.96839 1485.23 6.21576C1486.96 5.127 1488.95 4.55608 1490.81 3.90548C1492.94 3.20178 1495.19 2.13969 1497.58 2.03347C1500.77 1.88742 1506.35 2.21936 1510.06 3.02928C1513.52 3.77283 1516.83 5.2996 1520.02 6.86635C1523.87 8.75176 1529.45 10.9693 1533.17 14.3418C1537.55 18.3516 1543.52 24.8576 1546.58 30.9387C1549.76 37.0198 1551.09 44.017 1551.76 50.8151C1552.42 58.8082 1550.96 73.5726 1551.09 78.8438C1551.22 80.145 1551.89 81.3801 1552.55 82.4688C1553.75 84.3144 1556.27 87.6867 1558.26 89.9439C1560.25 92.1214 1563.84 96.1047 1564.63 95.9852C1565.56 95.8657 1563.84 90.8733 1563.31 89.2003C1563.04 88.0186 1562.24 86.4121 1561.58 85.9341C1560.78 85.4694 1559.72 85.8279 1559.06 86.3059C1556.93 87.7266 1552.42 91.5503 1549.36 94.4448C1545.38 98.2024 1538.88 104.084 1535.16 108.878C1531.84 113.219 1529.18 118.769 1526.93 123.204C1524.93 127.148 1522.68 132.724 1521.75 135.406C1521.22 136.628 1520.02 138.632 1521.22 139.283C1522.28 139.92 1526.13 140.159 1528.39 139.283C1531.84 137.942 1537.68 134.557 1541.66 131.25C1545.78 127.785 1549.9 122.487 1553.35 118.451C1556.4 114.786 1559.85 110.165 1562.11 107.058C1563.84 104.695 1565.96 100.553 1567.02 99.7824C1567.82 99.1849 1567.82 101.748 1568.62 102.385C1570.21 103.633 1573.53 105.85 1576.19 107.271C1579.24 108.904 1584.02 110.869 1586.81 112.157C1588.93 113.113 1591.45 113.551 1593.31 114.972C1596.63 117.601 1602.87 123.257 1607.26 127.891C1612.04 132.976 1617.61 139.137 1621.86 145.484C1626.11 151.844 1630.23 158.708 1632.75 166.051C1635.27 173.712 1636.73 183.776 1637.4 191.477C1638.06 198.381 1637.26 206.853 1637 212.257C1636.73 216.173 1636.07 220.13 1635.27 223.914C1634.47 227.632 1633.28 231.257 1632.35 234.934C1631.29 238.639 1629.96 242.304 1629.3 246.114C1628.63 250.23 1628.76 255.13 1628.5 259.644C1628.1 265.446 1627.83 275.537 1627.04 280.928C1626.37 284.765 1624.65 288.456 1623.19 291.948C1621.73 295.387 1620 298.945 1618.14 301.906C1616.28 304.748 1613.23 307.536 1611.77 309.753C1610.57 311.44 1609.38 313.259 1609.25 315.263C1608.58 319.897 1608.85 331.661 1608.18 337.53C1607.52 341.965 1605.93 346.744 1604.47 350.449C1603.27 353.755 1601.15 357.592 1599.42 359.783C1598.09 361.483 1595.97 362.996 1594.11 363.594C1592.25 364.191 1589.73 364.496 1588.13 363.394C1586.41 362.292 1585.75 358.88 1584.02 356.982C1581.36 353.915 1576.32 348.683 1572.07 344.939C1566.76 340.385 1559.32 334.609 1552.82 329.643C1544.45 323.257 1525.86 310.497 1522.01 306.633C1520.15 304.721 1527.32 306.474 1529.98 306.407C1538.21 306.235 1562.77 306.567 1571.27 305.544C1574.99 305.093 1579.11 303.367 1581.23 300.246C1585.21 294.139 1591.59 279.667 1595.7 268.952C1601.15 254.917 1610.18 231.137 1613.89 216.041C1616.82 203.785 1617.88 187.082 1617.74 178.399C1617.74 173.393 1615.89 168.388 1613.5 163.993C1610.97 159.213 1606.59 153.583 1602.21 149.746C1597.83 145.949 1592.91 142.496 1587.47 140.929C1581.23 139.177 1571.14 137.531 1565.17 139.23C1559.46 140.863 1554.94 145.975 1551.76 151.1C1548.44 156.664 1546.71 165.281 1545.25 172.636C1543.66 180.298 1542.99 188.875 1542.46 197.054C1541.93 206.64 1541.93 222.626 1541.93 230.115C1542.06 234.098 1541.93 239.037 1542.99 241.985C1543.92 244.481 1546.44 246.778 1548.44 247.814C1550.43 248.836 1553.61 248.531 1555.07 248.252C1555.87 248.066 1557.07 246.977 1556.8 246.114C1556.4 245.185 1554.54 243.538 1553.08 242.689C1551.49 241.786 1549.23 241.109 1547.24 240.697C1545.12 240.246 1541.53 239.515 1539.94 240.007C1538.48 240.418 1537.95 242.423 1537.55 243.645C1537.15 244.826 1537.15 246.141 1537.28 247.389C1537.55 249.208 1537.95 252.341 1539.01 254.585C1540.6 258.356 1544.85 266.349 1547.37 269.961C1549.1 272.417 1552.15 275.285 1553.88 276.201C1554.81 276.785 1556.67 276.241 1557.33 275.511C1557.99 274.794 1558 273.054 1557.73 271.859C1557.46 270.425 1556.4 268.367 1555.34 266.827C1554.14 265.021 1552.15 262.884 1550.43 261.012C1548.44 258.834 1545.12 255.17 1543.26 253.722C1542.33 252.912 1541 252.487 1539.67 252.341C1537.41 252.116 1533.3 251.837 1530.25 252.341C1526 253.032 1519.09 255.196 1514.84 256.417C1511.26 257.4 1507.81 259.272 1504.35 259.644C1500.9 260.016 1497.18 259.379 1494.13 258.675C1491.47 258.024 1489.35 255.86 1486.56 255.369C1481.91 254.519 1471.96 253.138 1465.98 253.603C1460.54 254.001 1453.5 256.656 1450.45 258.09C1448.99 258.794 1447.92 260.6 1447.79 262.233C1447.39 266.137 1447.79 277.409 1448.06 281.525C1448.19 283.384 1451.38 286.611 1449.52 286.903C1446.2 287.421 1434.78 285.575 1427.34 284.699C1416.32 283.358 1397.07 280.609 1382.86 278.91C1369.45 277.29 1350.07 275.617 1342.63 274.488C1340.91 274.236 1339.18 273.453 1337.99 272.151C1336.66 270.678 1335.46 267.969 1334.8 265.672C1329.75 249.925 1312.23 192.646 1307.85 177.642C1307.58 177.031 1307.71 176.314 1307.98 175.73C1308.91 173.606 1312.23 166.568 1313.56 164.949C1314.09 164.271 1315.68 165.201 1315.95 166.024C1321.79 183.099 1342.1 250.164 1348.21 267.398C1348.87 268.991 1351.13 269.257 1352.86 269.469C1369.45 271.607 1432.66 279.308 1447.92 280.237C1449.92 280.357 1446.33 275.696 1445.14 275.112C1443.81 274.541 1442.08 276.467 1440.36 276.759C1438.23 277.144 1435.05 277.648 1432.26 277.369C1428.81 277.011 1423.23 276.175 1419.38 274.608C1415.53 273.041 1411.54 269.257 1408.76 267.929C1406.76 267 1404.24 266.482 1402.38 266.588C1400.52 266.681 1398.8 267.544 1397.2 268.54C1395.61 269.562 1394.81 272.231 1392.95 272.749C1390.96 273.28 1386.58 272.165 1385.39 271.726C1384.86 271.527 1386.05 270.186 1385.79 270.08C1385.39 269.974 1384.33 271.129 1383.53 271.102C1381.8 271.063 1377.15 270.372 1375.69 269.775C1374.9 269.469 1374.5 268.221 1374.9 267.518C1375.56 266.07 1378.48 263.255 1380.34 261.144C1382.6 258.396 1386.71 253.244 1388.97 251.067C1390.43 249.726 1392.16 248.438 1394.02 248.093C1397.6 247.442 1405.17 247.336 1410.22 247.203C1414.86 247.07 1420.17 246.751 1424.16 247.269C1427.74 247.721 1431.86 249.447 1434.65 250.297C1436.64 250.934 1438.63 252.063 1440.89 252.341C1445.14 252.912 1456.29 253.311 1460.14 253.709C1461.47 253.855 1464.39 254.147 1463.99 254.745C1463.59 255.342 1459.21 255.621 1457.75 257.294C1456.42 258.967 1456.16 262.764 1455.76 264.769C1455.36 266.283 1455.09 267.836 1455.09 269.376C1455.23 271.872 1455.36 277.117 1455.89 279.733C1456.29 281.645 1456.69 283.942 1458.28 285.084C1461.73 287.513 1471.69 292.32 1476.34 294.365C1479.52 295.772 1482.98 296.502 1486.3 297.419C1490.68 298.574 1498.38 299.649 1502.23 301.349C1505.15 302.65 1507.01 305.531 1509.53 307.629C1518.96 315.781 1548.3 339.734 1558.79 350.33C1564.77 356.265 1570.61 366.09 1572.87 371.215C1574.06 374.242 1572.73 378.73 1571.94 381.054C1571.41 382.846 1570.08 385.09 1568.09 385.183C1552.95 385.86 1503.03 387.215 1481.25 385.13C1465.85 383.683 1449.65 376.672 1436.9 372.715C1425.88 369.33 1414.6 365.572 1404.24 361.456C1394.02 357.433 1381.67 350.887 1374.23 347.979C1369.59 346.134 1363.48 345.204 1359.63 343.996C1356.84 343.12 1353.39 340.902 1351.53 340.743C1350.33 340.623 1349.14 341.872 1348.74 343.014C1348.34 344.288 1349.8 346.864 1348.87 348.404C1347.28 350.953 1341.04 355.494 1339.31 358.336C1338.12 360.38 1339.84 363.248 1338.92 365.426C1337.45 368.772 1334.14 374.614 1330.68 378.411C1325.11 384.652 1313.16 394.955 1305.06 402.842C1297.36 410.37 1289.12 418.058 1282.35 425.772C1275.85 433.155 1269.74 441.759 1264.43 449.141C1259.52 455.952 1253.01 466.787 1250.22 470.066C1249.56 470.863 1248.23 469.402 1247.3 468.778C1240 463.507 1213.71 443.963 1206.54 438.439C1205.61 437.749 1205.08 436.62 1204.55 435.651C1204.02 434.708 1203.35 433.606 1203.62 432.624C1204.02 431.548 1205.48 430.154 1206.8 429.264C1208 428.375 1209.86 428.335 1211.05 427.286C1214.11 424.617 1222.21 416.929 1224.99 413.238C1226.85 410.928 1226.72 407.462 1228.45 405.126C1231.5 401.049 1238.94 394.544 1243.58 388.795C1254.6 375.145 1282.62 340.836 1295.1 323.296C1304 310.776 1313.29 291.032 1318.47 283.583C1320.19 281.034 1323.38 279.706 1326.3 278.618C1329.75 277.356 1334.67 275.829 1338.92 275.989C1344.09 276.175 1351.53 278.405 1357.77 279.733C1368.13 281.924 1387.11 287.035 1400.92 289.12C1414.07 291.098 1430 291.577 1440.62 292.227C1448.59 292.705 1458.02 292.028 1464.52 292.997C1469.57 293.767 1474.61 295.653 1479.26 298.003C1484.57 300.711 1493.6 306.832 1496.52 309.235C1497.32 309.926 1496.65 311.387 1496.79 312.462C1496.79 314.095 1496.25 316.897 1496.92 318.995C1497.58 321.398 1498.91 324.611 1500.77 326.855C1502.76 329.192 1506.35 331.356 1508.6 333.042C1510.59 334.476 1514.44 336.308 1514.71 337.012C1515.11 337.716 1512.19 337.225 1510.86 337.251C1505.95 337.384 1493.73 338.366 1485.23 337.782C1476.74 337.198 1468.5 334.622 1460.01 333.759C1450.58 332.803 1438.76 333.613 1429.34 332.073C1420.17 330.586 1411.81 326.098 1402.78 324.452C1391.63 322.447 1372.37 321.491 1363.08 320.043C1357.64 319.194 1350.47 316.525 1346.88 315.821C1345.16 315.476 1343.16 314.998 1341.7 315.821C1340.11 316.631 1339.05 318.995 1337.99 320.694C1336.79 322.447 1336.39 325.115 1334.67 326.324C1332.94 327.532 1329.22 327.705 1327.63 327.957C1326.43 328.103 1325.24 327.293 1324.31 327.837C1323.11 328.541 1321.39 330.506 1320.46 332.179C1319.4 333.852 1318.87 336.162 1318.33 337.915C1317.94 339.468 1318.6 341.473 1317.54 342.682C1312.63 348.205 1298.68 361.522 1289.26 371.042C1279.57 380.961 1265.23 395.3 1258.99 402.258C1256.2 405.405 1253.54 409.414 1252.08 412.84C1250.75 415.973 1250.62 419.943 1250.09 422.865C1249.56 425.361 1249.96 428.362 1248.5 430.34C1247.17 432.318 1243.58 433.818 1241.59 434.708C1240.13 435.385 1238.4 435.067 1236.94 435.717C1235.48 436.368 1233.76 437.563 1232.96 438.612C1232.3 439.528 1232.56 440.842 1232.43 441.958C1232.16 443.272 1232.43 445.397 1231.37 446.499C1230.44 447.601 1228.05 448.424 1226.19 448.57C1222.47 448.862 1212.65 448.543 1208.93 448.265C1207.2 448.132 1205.61 447.388 1203.88 446.897C1202.16 446.366 1200.16 445.184 1198.44 445.118C1196.71 445.051 1194.99 445.649 1193.53 446.485C1186.49 450.469 1164.05 464.264 1156.22 468.964C1153.16 470.863 1149.84 473.319 1146.92 474.727C1144.27 475.988 1141.08 477.05 1138.56 477.409C1136.17 477.741 1133.25 476.997 1131.39 476.877C1129.79 476.784 1128.2 476.665 1126.87 476.665C1125.41 476.665 1123.95 476.333 1122.62 476.877C1121.3 477.435 1119.7 478.989 1118.91 479.984C1118.38 480.794 1118.11 482.122 1117.98 482.892C1117.84 483.463 1117.58 484.552 1118.11 484.618C1121.83 485.03 1134.57 486.517 1140.42 485.362C1145.33 484.406 1149.18 480.409 1153.43 477.741C1158.47 474.62 1165.64 469.84 1170.29 466.667C1173.88 464.131 1177.2 460.692 1181.05 458.714C1184.76 456.749 1189.41 455.408 1193 454.731C1196.31 454.12 1200.43 454.478 1202.95 454.624C1204.95 454.731 1206.8 455.023 1208.66 455.594C1211.85 456.536 1218.09 458.78 1221.54 460.32C1224.46 461.582 1227.65 463.839 1229.91 464.835C1231.5 465.565 1233.89 465.233 1235.09 466.335C1236.15 467.45 1236.55 470.013 1236.81 471.5C1237.21 472.722 1236.55 474.156 1237.08 475.258C1238.01 476.904 1241.19 478.922 1242.25 481.392C1243.32 483.915 1243.18 487.38 1243.45 490.394C1243.58 494.47 1243.85 503.207 1243.58 505.849C1243.58 506.354 1242.65 506.234 1242.12 506.247C1236.81 506.38 1216.9 506.712 1211.85 506.593C1211.45 506.593 1211.45 505.916 1211.32 505.57C1211.05 504.813 1210.79 502.981 1210.26 502.118C1209.86 501.374 1209.06 500.83 1208.4 500.405C1207.73 499.994 1207.07 499.595 1206.27 499.542C1204.55 499.449 1200.96 499.37 1198.31 499.834C1195.52 500.352 1192.2 501.839 1189.14 502.636C1185.03 503.685 1179.05 505.464 1173.88 506.101C1167.77 506.858 1158.87 507.31 1152.5 507.177C1146.52 507.044 1140.42 505.969 1134.84 505.265C1129.53 504.601 1123.29 503.858 1119.04 502.995C1115.59 502.317 1111.21 501.348 1108.82 500.126C1107.09 499.21 1105.5 497.564 1104.83 495.705C1103.9 493.621 1103.5 489.438 1103.77 487.592C1104.04 486.251 1105.5 485.056 1106.56 484.605C1107.62 484.14 1109.48 484.353 1110.14 484.844C1110.81 485.335 1110.54 486.663 1110.54 487.592C1110.54 488.668 1109.61 490.089 1109.88 491.297C1110.28 492.665 1111.47 494.709 1112.93 495.824C1114.53 497.139 1117.58 498.068 1119.97 499.17C1122.49 500.352 1125.15 502.078 1127.94 502.875C1132.45 504.15 1147.06 506.154 1147.19 506.845C1147.32 507.535 1134.84 506.951 1128.6 506.991C1119.97 507.071 1103.11 507.456 1094.87 507.296C1089.83 507.19 1084.78 506.871 1079.74 506.048C1072.97 504.959 1062.61 504.043 1054.78 500.764C1020.78 486.451 935.146 449.234 875.264 420.169C834.635 400.465 788.826 378.451 743.019 392.99C690.44 409.693 650.342 456.364 615.024 496.316C592.186 522.048 566.826 554.949 529.516 557.817C485.036 561.243 447.593 515.635 412.142 495.652C365.139 469.23 309.772 462.392 256.662 463.441C167.304 465.193 90.4274 522.964 1.99884 524.026" stroke="black" stroke-width="3" stroke-miterlimit="1.5" stroke-linecap="round" stroke-linejoin="round"/>
</svg>
