<?xml version="1.0" encoding="utf-8"?>
<!-- Generator: Adobe Illustrator 25.4.1, SVG Export Plug-In . SVG Version: 6.00 Build 0)  -->
<svg version="1.1" id="Layer_1" xmlns="http://www.w3.org/2000/svg" xmlns:xlink="http://www.w3.org/1999/xlink" x="0px" y="0px"
	 viewBox="0 0 1920 510" style="enable-background:new 0 0 1920 510;" xml:space="preserve">
<style type="text/css">
	.st0{fill:none;stroke:#FFFFFF;stroke-width:3;stroke-linecap:round;stroke-linejoin:round;stroke-miterlimit:1.5;}
</style>
<path class="st0" d="M-266,212.8c201.2,9.7,165.8,257,353,291.7c140.9,26.1,236.5-98.7,341.4-164.9c50.9-32.1,110.5-50.8,169.9-58.1
	c150.7-18.8,270.3,61.1,407.4,107.7c81.5,27.7,240.8,24,292.4,28.7c5.5,0.5,15.5,0.2,16.6-0.7c1.3-0.9-7.4-1.7-9.2-4.7
	c-2.5-3.8-4.8-12-5.2-18.2c-0.4-6.2,4.1-14.5,3-19c-1-4-6.2-5.5-9.7-7.9c-6.2-4.6-19.7-12.6-28.1-19.5c-8-6.6-18.2-17.6-22.2-21.9
	c-1-1.1-0.1-3.9-1.7-4.2c-4.7-0.8-20.6,0.5-26.4-0.7c-3.4-0.7-6.5-3.5-8.4-6.6c-2.4-4.3-5-13.5-6.4-19.5c-1.4-5.4-2.4-11.2-2.4-16.4
	c0-5,1.6-10.8,2.7-14.8c1.1-3.3,2.4-6.6,4.8-9.1c2.4-2.6,6-5.2,9.5-6.4c3.8-1.3,9.5-0.9,13.1-1.2c2.6-0.2,6.1,0.3,7.7-0.6
	c1.4-0.8,1-3.1,1.6-4.7c1-2.6,2.8-7.4,4.6-11.1c1.6-3.7,3.4-8,5.3-11.2c1.8-2.9,5.1-6.7,6.4-7.9c0.4-0.4,0.9,0.7,1.3,1
	c3.3,1.9,15.3,8.9,18.8,10.4c0.6,0.3,1-1,1.4-1.4c0.7-0.7,1.6-2.3,2.6-2.9c1-0.6,2.4-0.8,3.6-0.8c1.7,0,4.5,0,6.4,0.8
	c1.7,0.9,3.1,2.6,4.3,4.3c1.1,1.7,2,3.7,2.7,5.7c0.6,2,1,4.5,1.3,6.6c0.1,2.1,0.3,4.3,0.1,6.2c-0.1,1.7-0.6,3.4-1.1,5
	c-0.4,1.5-1.3,2.9-2.1,4.2c-0.7,1.2-1.7,2.6-2.7,3.4c-1.1,0.8-2.4,1.3-3.7,1.6c-1.4,0.4-3.3,0.8-4.8,0.5c-1.7-0.3-3.7-1-5.1-2.2
	c-1.6-1.3-3.3-4-4.4-5.9c-1-1.7-2-3.4-2.4-5.3c-0.4-2,0-4.6,0.1-6.7c0.1-2,0.7-4.4,1-5.8c0.1-1,0.8-2,0.7-3
	c-0.3-0.9-1.4-1.6-1.8-2.5c-2-3.7-8.7-16.2-10.2-19.9c-0.3-0.8,0.4-1.7,1-2.3c2.8-3,13.2-12.6,15.9-15.4c0.6-0.5,1.3-1.2,1-1.8
	c-1.1-2-4.7-7.3-7.8-10.2c-3.4-3.2-8.9-6.9-12.8-9c-3-1.7-6.4-2.5-9.7-3.7c-3.6-1.3-9.9-3-11.8-4c-0.6-0.4,0.6-1.6,1.1-2
	c1.3-1.1,4.1-3.3,6.5-4.2c2.6-1,6.1-1.7,9.4-2c4.4-0.5,11.1-1.2,16.6-0.9c6,0.3,14.2,1.8,19.5,2.8c4.3,0.8,8.4,2,12.4,3.3
	c3.8,1.2,8.2,3.2,11.2,4.4c2.1,0.9,5,2.2,6.4,2.7c0.7,0.2,1.6,0.2,2.3,0c1.7-0.5,5.7-2.1,8.7-3c3.1-1,6.7-1.9,10.1-2.9
	c3.6-1,7-2.1,10.5-2.9c4-0.9,9.4-1.8,13.2-2.3c3.4-0.4,7.5-0.6,10.2-0.8c1.7-0.1,4.3,0,5.4-0.4c0.7-0.2,0.7-1.2,1-1.9
	c2-4.5,9.8-20.2,11.2-25.1c0.4-1.7-1.3-3.4-2.7-4.5c-2.3-1.6-7.7-2.8-10.8-5.4c-4.1-3.7-11.1-10.5-14.5-16.9
	c-3.4-6.4-5-15.8-6.1-21.5c-0.7-4.1-0.4-8.3-0.3-12.5c0.3-4.6,0.1-10.2,1.6-15.1c1.4-5.4,4.8-12.6,7.5-17.3c2.3-4,5.5-7.9,8.5-10.9
	c2.7-2.8,6-5.2,9.2-7.3c3.5-2.3,7.7-5.2,12.1-6.5c5.1-1.5,13.2-2,18.9-2.5c5-0.4,10.2-1.4,15.2-0.5c5.8,1,14.1,3.5,19.9,6.5
	c5.7,2.9,10.8,6.8,15.2,11.3c4.5,4.8,11.9,13.8,12.1,17.4c0.3,3.7-7.9,5.2-11.1,4.6c-3-0.7-5.1-6-7.2-8.5c-1.9-2.2-3.3-5-5.7-6.6
	c-3.8-2.6-11.9-7.3-17.3-9.1c-4.5-1.6-9.5-1.7-14.5-1.7c-5.1-0.1-11.5-0.2-16.8,1.2c-5.4,1.5-10.8,3.8-15.1,7.6
	c-4.7,4.3-10.8,13-13.6,18.1c-2.1,3.7-3.4,8-4,12.3c-0.6,4.9-0.4,12.2,0.1,16.9c0.4,3.7,1.6,7.4,3,10.9c1.7,3.7,4.4,8.1,6.8,11.5
	c2.3,3.2,5.1,6.3,8,8.7c2.7,2.3,5.8,4,9.1,5.5c3.1,1.6,6.5,3,9.9,3.8c3.1,0.8,6.8,1.1,9.8,1.2c2.7,0.2,5.4,0.4,8.1,0
	c3.1-0.5,7.1-1.6,10.5-3c3.7-1.5,8.4-3.8,11.9-6.1c3.4-2.3,7.7-6.2,9.4-8c0.6-0.6,1.6-2.6,0.7-2.5c-2.1,0.4-15.2,5.7-13.5,4.6
	c0,0-37.4-3.9-46.5-6.2c-0.8-0.2-3-7.9-2-11.7c0.2-0.7,24.9-20.7,23.9-21.7c-0.6-0.8-26.6-4.5-32.8-6.1c-0.9-0.2-0.7-9.5-0.9-9.4
	 M1386.8,43.7c-2,0.7,56.4-2.1,56.7-1 M1386.8,43.7c-1.6-0.5,8.5-10.4,9.1-10.2c1.1,0.3,47.6,8.8,47.6,9.2 M1386.8,43.7
	c6.7,2.1,47.5,6.6,47.7,7.1c0.2,0.2,2,8.2,2.1,9.2c0.3,1.9-25.7,24.1-25,24.7c4.8,3.4,45,6.1,44.6,4.6c-1.8-7-7.8-24.9-8.4-29.2
	c0-0.6-8.4,4-8.2,5.6c0.7,4.1,6.5,25.6,7.8,28.9c0,0,9.8-1.7,12.5-3c1.8-0.9,3.3-2.8,4-4.7c1.4-3.7,4.3-12.6,4.8-17.6
	c0.6-4.2-0.4-8.4-1-12.6c-0.4-4.1-5-11.4-2-12.2c2.1-0.6,9.7-1.3,11.5-3.5c2-2.1,3.1,6.4,4.1,9.6c0.9,3.2,1.1,6.5,1.3,9.9
	c0.2,3.8,0.4,8.8,0,13.2c-0.4,4.7-0.7,10.3-2.7,15c-2.7,6.1-8.1,16.3-13.2,21.8c-4.8,5-11.4,8.2-17.6,11c-6.7,3-16.5,5.9-22.6,6.8
	c-4.4,0.7-8.9-0.3-13.3-1c-5-0.8-12.7-2.8-16.1-3.8c-1.6-0.4-3.5-1.9-4.5-1.8c-1,0.2-1.3,1.7-1.6,2.7c-0.3,2.7-0.7,9-0.9,13.2
	c-0.1,4-1.6,10.2,0.3,11.9c2,1.8,7.4-1.2,11.1-1.4c4.3-0.3,9.8-0.6,14.6-0.2c6.2,0.5,15.9,1.4,22.9,3.2c6.7,1.7,13.1,4.7,18.9,7.4
	c5.7,2.6,11.8,6,16.6,8.6c4.3,2.3,8.7,4.4,12.6,7.1c4.3,2.8,9.1,7.3,12.6,9.9c2.7,2,7.4,4,8.5,5.4c0.7,0.8-0.7,2.2-1.6,2.8
	c-3.7,2.4-16.3,9.8-20.2,11.4c-1.1,0.5-2.1-1.2-3.1-2c-2.7-2.1-8.1-7.5-12.5-10.6c-5-3.4-11.1-7.2-16.9-10.1
	c-6-2.8-13.3-5.4-18.8-6.9c-4.3-1.2-8.8-1.6-13.4-2c-5.2-0.6-12.2-1.2-18.5-1.3c-6.4-0.1-14.2-0.2-20,0.8
	c-5.4,0.9-11.7,3.8-15.3,5.2c-2.4,0.9-6.8,2.8-7.1,3.4s3.5,0,5.3,0c3,0,8.4-0.2,12.4-0.2c3.7,0,7.5,0,11.4,0.2
	c3.7,0.2,7.7,0.3,11.5,0.7c4.7,0.6,10.8,1.7,16.1,2.6c5,0.9,10.1,1.6,15.1,2.8c6,1.4,14.8,3.5,21,5.9c5.8,2.2,11.8,6.1,16.6,8.6
	c4,2.1,9.1,5.6,12.2,6.2c2.4,0.5,4.7-1.8,7-2.6c2.7-0.9,6.1-2.1,9.1-3c2.7-0.9,5.5-1.7,8.2-2.6c2.7-0.9,6.7-2.5,8.1-2.7
	c0.6-0.1,0.7,0.9,1,1.3c1,1.1,3.1,3.7,4.7,5.6c2,2.3,5,5.1,7.1,7.9c2.4,3.2,5.3,7.7,7.2,10.9c1.6,2.6,3,5.3,4.3,8.1
	c1.7,4.4,5.1,15.3,6.4,18.3c0.1,0.4,1,0.2,1.3-0.1c1-0.6,3-2,4.4-3.2c1.8-1.7,5.1-5.1,6.7-6.8c0.9-1,2-2.5,2.3-3.4
	c0.3-0.7-0.2-1.4-0.6-2c-1.1-1.7-4.7-5.4-6.5-8.3c-1.8-2.8-3.7-6-4.5-8.9c-0.7-2.7-0.4-6.1-0.3-8.4c0.2-1.9,0.4-3.9,1-5.6
	c0.6-1.7,1.6-3.3,2.6-4.8c1.1-1.7,3-4.2,4.4-5.4c1-1,2.6-1.5,4-1.9c1.6-0.6,3.7-1.2,5.5-1.3c1.7-0.1,3.6,0.1,5.2,0.6
	c1.7,0.4,3.6,1.2,4.8,1.9c1,0.6,2.3,1.7,2.6,2.4c0.3,0.4-0.1,1-0.3,1.4c-1,2-4,7-5.5,10.8c-1.9,4.3-4.1,12.8-5.3,15.1
	c-0.4,0.8-1.6-0.9-2.1-1.7c-0.7-1.3-2.1-4.1-2.7-6c-0.6-1.7-0.7-3.8-0.4-5.3c0.2-1.3,1-2.6,1.8-3.4c0.8-0.8,2.4-1.3,3.3-1.3
	c0.7,0,1.4,0.8,2,1.4c0.6,0.7,0.6,2.6,1.4,2.8c0.7,0.3,2.3-0.7,3.3-1.3c1.4-0.9,3.8-3,5.3-4c1-0.7,2.6-2.1,3.1-2
	c0.6,0.1,0.4,1.8,0.6,2.7c0.2,1.6,0.3,4.6,0,6.8c-0.3,2.7-1,6.7-1.7,9.2c-0.6,2-2.3,4.4-2.6,5.6c-0.3,0.6-0.3,1.7,0.3,1.9
	c0.8,0.2,3.4-0.1,5.1-0.6c1.6-0.5,3.3-1.2,4.5-2.3c1.6-1.2,3.4-3.3,5-5.1c1.6-1.8,3.3-3.7,4.5-5.8c1.6-2.7,4-7,5.3-10.2
	c1.1-3,1.6-6.2,2-9.3c0.4-3.4,0.7-7.2,0.8-10.8c0.3-3.5,0.4-9.3,0.7-10.7c0.1-0.8,0.8,1.5,1.3,2.2c0.7,1.6,2.3,4.7,2.8,7.2
	c0.7,2.5,0.6,5.3,0.8,8c0.3,3.1,0.9,7,0.7,10.4c-0.1,3.8-0.4,8.5-1.6,12.5c-1.4,4.4-4,10.3-6.4,14.1c-2.3,3.5-5.5,6.8-8.5,9.1
	c-2.6,2.1-5.8,3.9-8.8,4.9c-3,1-6.4,1.4-9.1,1.5c-2.7,0.1-6.4-1.1-7.8-1c-0.4,0-0.4,0.9-0.7,1.3c-1,1.9-3.6,7-5.5,10
	c-1.7,2.8-4.1,5.5-6,8.1c-1.9,2.5-3.7,5.6-5.3,7.5c-1.4,1.5-4.3,2.6-4.8,3.9c-0.7,1.3,0.8,2.8,0.8,4.2c0.1,2.7-0.3,7.9-0.4,11.9
	c-0.3,4.8,0.3,11.5-0.9,17.1c-1.1,5.6-3.8,11.6-5.7,16.5c-1.8,4.4-3.7,9.1-6,12.9c-2.3,3.7-5,7.2-8,10.3c-3,3.2-6.7,6.2-10.2,9
	c-3.8,2.9-8.8,6.6-12.5,8.5c-3.1,1.6-7,2.4-10.1,3.3c-3.1,0.9-8.1,1.5-9.5,2.2c-0.6,0.3,1,1.2,1.1,1.8c0.1,1.5,0.3,4.6,0.6,6.9
	c0.3,3.4,1.6,8.8,1.6,13.2c0.2,4.8-0.1,11.4-1,15.7c-0.7,3.5-2,7.5-4,10c-2.1,2.5-5.5,4.2-8.7,5c-3.8,1-9.7,1.2-14.3,1.1
	c-4.6-0.1-9.9-1-13.6-1.8c-2.8-0.6-6.2-0.6-8.5-2.6c-2.4-2.3-4.7-7.2-6-10.9c-1.1-3.6-1-8-1.3-11.2c-0.1-2.8,0.7-7.1,0-8.4
	c-0.4-1.1-2.4,0-3.7,0.3c-4.3,1-15.6,4.6-21.9,5.9c-5.1,1-10.4,1.5-15.6,1.7c-7.7,0.3-24.9-0.3-30.3,0.2c-1.1,0.1-2,1.5-2.3,2.7
	c-0.3,1.7,0.4,5.3,0.1,7.6c-0.3,2.1-0.8,4.2-2,6c-1,1.9-2.6,3.9-4.4,5.3c-2.1,1.6-5.4,3.8-8.4,4.5c-3.6,0.8-8.9,0.4-12.4,0.4
	c-3,0-11.5-0.5-8.7-0.5c4.1-0.1,22.2,0.1,33.1,0.1c32.1-0.1,116.1,2.5,159.5-0.4c34.2-2.3,68.3-8.5,101.6-16.9
	c36.1-9.1,79.7-18.1,114.6-37.4c71-39.6,103.8-95.3,188.9-43.8 M1443.5,42.7c0.7,2.1,2.4,9.6,2.6,10.3c0.3,1-8.1,6.6-8.4,6.8
	c-0.3,0.2-1.7-7.7-2.1-9.2C1435.6,50.4,1443.7,45,1443.5,42.7z"/>
</svg>
