<svg width="1920" height="510" viewBox="0 0 1920 510" fill="none" xmlns="http://www.w3.org/2000/svg">
<path d="M-266 212.813C-64.8448 222.481 -100.217 469.818 87.016 504.471C227.938 530.549 323.544 405.723 428.383 339.527C479.24 307.43 538.904 288.776 598.285 281.38C749.009 262.556 868.622 342.466 1005.71 389.071C1087.25 416.782 1246.5 413.119 1298.07 417.79C1303.61 418.287 1313.55 417.946 1314.69 417.052C1315.97 416.143 1307.3 415.306 1305.45 412.367C1302.9 408.548 1300.62 400.343 1300.2 394.139C1299.77 387.936 1304.32 379.645 1303.18 375.173C1302.19 371.156 1296.93 369.722 1293.52 367.295C1287.27 362.724 1273.78 354.731 1265.39 347.832C1257.44 341.216 1247.21 330.257 1243.23 325.899C1242.24 324.792 1243.09 321.981 1241.53 321.711C1236.84 320.888 1220.93 322.194 1215.1 320.973C1211.69 320.235 1208.57 317.467 1206.72 314.372C1204.31 310.028 1201.75 300.843 1200.33 294.866C1198.91 289.515 1197.92 283.694 1197.92 278.513C1197.92 273.501 1199.48 267.695 1200.61 263.734C1201.75 260.469 1203.03 257.162 1205.44 254.663C1207.86 252.079 1211.41 249.496 1214.96 248.261C1218.8 246.997 1224.48 247.352 1228.03 247.04C1230.59 246.813 1234.14 247.295 1235.7 246.401C1237.12 245.592 1236.7 243.278 1237.26 241.73C1238.26 239.104 1240.11 234.306 1241.81 230.658C1243.37 226.953 1245.22 222.623 1247.07 219.457C1248.91 216.589 1252.18 212.756 1253.46 211.606C1253.89 211.237 1254.31 212.302 1254.74 212.572C1258.01 214.46 1270.08 221.487 1273.49 222.978C1274.06 223.261 1274.48 222.026 1274.91 221.529C1275.62 220.805 1276.47 219.272 1277.47 218.662C1278.46 218.037 1279.88 217.853 1281.02 217.853C1282.72 217.853 1285.57 217.81 1287.41 218.662C1289.12 219.514 1290.54 221.302 1291.67 222.963C1292.81 224.624 1293.66 226.626 1294.37 228.613C1294.94 230.658 1295.37 233.114 1295.65 235.243C1295.79 237.302 1295.94 239.573 1295.79 241.432C1295.65 243.122 1295.23 244.882 1294.66 246.401C1294.23 247.877 1293.38 249.325 1292.53 250.589C1291.82 251.81 1290.82 253.158 1289.83 253.996C1288.69 254.819 1287.41 255.274 1286.13 255.614C1284.71 255.969 1282.87 256.409 1281.3 256.154C1279.6 255.884 1277.61 255.174 1276.19 253.996C1274.63 252.647 1272.92 249.95 1271.79 248.076C1270.79 246.415 1269.8 244.683 1269.37 242.781C1268.94 240.779 1269.37 238.153 1269.51 236.052C1269.65 234.093 1270.22 231.694 1270.51 230.232C1270.65 229.224 1271.36 228.187 1271.22 227.265C1270.93 226.356 1269.8 225.646 1269.37 224.724C1267.38 220.976 1260.7 208.512 1259.14 204.806C1258.86 204.04 1259.57 203.117 1260.14 202.507C1262.98 199.554 1273.35 189.957 1276.05 187.09C1276.62 186.621 1277.33 185.883 1277.04 185.301C1275.9 183.299 1272.35 178.004 1269.23 175.094C1265.82 171.9 1260.28 168.237 1256.44 166.122C1253.46 164.433 1250.05 163.61 1246.78 162.46C1243.23 161.182 1236.84 159.507 1234.99 158.499C1234.42 158.13 1235.56 156.938 1236.13 156.455C1237.41 155.404 1240.25 153.176 1242.66 152.239C1245.22 151.203 1248.77 150.578 1252.04 150.223C1256.44 149.726 1263.12 149.03 1268.66 149.314C1274.63 149.627 1282.87 151.075 1288.12 152.083C1292.38 152.877 1296.5 154.098 1300.48 155.376C1304.32 156.625 1308.72 158.598 1311.7 159.777C1313.83 160.643 1316.68 162.02 1318.1 162.46C1318.81 162.673 1319.66 162.659 1320.37 162.46C1322.07 161.963 1326.05 160.401 1329.04 159.507C1332.16 158.527 1335.71 157.562 1339.12 156.611C1342.67 155.646 1346.08 154.496 1349.63 153.715C1353.61 152.835 1359.01 151.884 1362.85 151.373C1366.25 150.933 1370.37 150.819 1373.07 150.62C1374.78 150.493 1377.34 150.62 1378.47 150.251C1379.18 150.024 1379.18 149.03 1379.47 148.391C1381.46 143.891 1389.27 128.19 1390.69 123.25C1391.11 121.575 1389.41 119.801 1387.99 118.75C1385.72 117.103 1380.32 115.996 1377.19 113.341C1373.07 109.622 1366.11 102.851 1362.7 96.4483C1359.29 90.0601 1357.73 80.6479 1356.59 74.9979C1355.88 70.9236 1356.17 66.6932 1356.31 62.5479C1356.6 57.9484 1356.45 52.327 1357.87 47.4577C1359.29 42.0632 1362.7 34.8659 1365.4 30.1528C1367.67 26.1211 1370.94 22.2737 1373.93 19.2216C1376.62 16.3966 1379.89 14.0259 1383.16 11.8823C1386.71 9.58257 1390.83 6.65808 1395.23 5.38043C1400.35 3.87565 1408.45 3.39297 1414.13 2.88192C1419.1 2.44184 1424.36 1.49087 1429.33 2.34263C1435.15 3.32216 1443.39 5.86336 1449.22 8.84453C1454.9 11.6979 1460.01 15.616 1464.42 20.1872C1468.96 24.9854 1476.35 33.9574 1476.49 37.6342C1476.78 41.2967 1468.54 42.8441 1465.41 42.2052C1462.43 41.5522 1460.3 36.2429 1458.17 33.716C1456.32 31.5157 1454.9 28.733 1452.48 27.0862C1448.65 24.46 1440.55 19.7612 1435.15 17.9583C1430.61 16.3825 1425.64 16.2974 1420.66 16.2264C1415.55 16.1412 1409.16 16.0133 1403.9 17.4755C1398.5 18.9519 1393.1 21.3085 1388.84 25.0421C1384.15 29.3151 1378.05 38.0883 1375.2 43.1563C1373.07 46.8756 1371.8 51.1769 1371.23 55.4357C1370.66 60.2908 1370.8 67.6587 1371.37 72.2866C1371.79 76.0201 1372.93 79.711 1374.35 83.1464C1376.06 86.88 1378.76 91.2809 1381.17 94.6454C1383.44 97.8253 1386.28 100.948 1389.13 103.305C1391.83 105.562 1394.95 107.266 1398.22 108.813C1401.34 110.375 1404.75 111.766 1408.16 112.603C1411.29 113.427 1414.98 113.654 1417.96 113.853C1420.66 114.051 1423.36 114.279 1426.06 113.853C1429.19 113.356 1433.16 112.248 1436.57 110.871C1440.27 109.352 1444.96 107.081 1448.51 104.739C1451.92 102.453 1456.18 98.5067 1457.88 96.7606C1458.45 96.1501 1459.45 94.1343 1458.59 94.2763C1456.46 94.6312 1443.39 99.9405 1445.1 98.8758C1445.1 98.8758 1407.74 94.9291 1398.64 92.7145C1397.79 92.4874 1395.66 84.8357 1396.65 80.9886C1396.8 80.2788 1421.51 60.3336 1420.52 59.2405C1419.95 58.4313 1393.96 54.7686 1387.71 53.1077C1386.85 52.8948 1387 43.653 1386.85 43.7382M1386.85 43.7382C1384.86 44.4764 1443.25 41.623 1443.53 42.7161M1386.85 43.7382C1385.29 43.2697 1395.38 33.3325 1395.94 33.5171C1397.08 33.8436 1443.53 42.3612 1443.53 42.7161M1386.85 43.7382C1393.53 45.8676 1434.3 50.3819 1434.58 50.8362C1434.73 51.0633 1436.57 59.0131 1436.72 60.0352C1437 61.9375 1411 84.1403 1411.71 84.7081C1416.54 88.0726 1456.75 90.7698 1456.32 89.265C1454.47 82.2805 1448.51 64.3224 1447.94 60.0352C1447.94 59.4106 1439.56 64.0813 1439.7 65.6003C1440.41 69.7455 1446.23 91.1814 1447.51 94.5459C1447.51 94.5459 1457.31 92.7999 1460.01 91.5223C1461.86 90.6563 1463.28 88.7398 1463.99 86.8375C1465.41 83.1182 1468.25 74.2315 1468.82 69.1919C1469.39 65.0183 1468.4 60.7593 1467.83 56.6141C1467.4 52.5114 1462.85 45.1861 1465.84 44.3911C1467.97 43.8233 1475.5 43.0426 1477.34 40.899C1479.33 38.7838 1480.47 47.2872 1481.46 50.5239C1482.32 53.718 1482.6 57.0682 1482.74 60.3759C1482.89 64.223 1483.17 69.2201 1482.74 73.6067C1482.32 78.3198 1482.03 83.9557 1480.04 88.612C1477.34 94.7447 1471.95 104.923 1466.83 110.389C1462 115.428 1455.47 118.566 1449.22 121.377C1442.54 124.358 1432.74 127.239 1426.63 128.219C1422.23 128.943 1417.68 127.963 1413.28 127.239C1408.3 126.459 1400.63 124.4 1397.22 123.478C1395.66 123.052 1393.67 121.533 1392.68 121.689C1391.68 121.845 1391.4 123.378 1391.12 124.4C1390.83 127.055 1390.4 133.372 1390.26 137.56C1390.12 141.535 1388.7 147.738 1390.55 149.485C1392.54 151.245 1397.93 148.32 1401.63 148.093C1405.89 147.824 1411.43 147.511 1416.26 147.895C1422.51 148.406 1432.17 149.329 1439.13 151.103C1445.81 152.764 1452.2 155.844 1458.02 158.499C1463.71 161.054 1469.82 164.462 1474.65 167.059C1478.91 169.345 1483.31 171.446 1487.29 174.129C1491.55 176.954 1496.38 181.454 1499.93 183.995C1502.63 185.968 1507.32 188.027 1508.46 189.404C1509.17 190.227 1507.75 191.604 1506.89 192.186C1503.2 194.543 1490.56 201.996 1486.72 203.543C1485.58 204.012 1484.59 202.294 1483.6 201.499C1480.9 199.384 1475.5 194.018 1471.09 190.895C1466.12 187.445 1460.01 183.655 1454.19 180.83C1448.22 178.019 1440.84 175.435 1435.44 173.944C1431.18 172.738 1426.63 172.369 1422.08 171.9C1416.83 171.347 1409.87 170.694 1403.62 170.594C1397.22 170.509 1389.41 170.353 1383.59 171.347C1378.19 172.241 1371.94 175.123 1368.24 176.556C1365.83 177.493 1361.42 179.353 1361.14 179.907C1360.86 180.461 1364.69 179.921 1366.4 179.907C1369.38 179.879 1374.78 179.722 1378.76 179.722C1382.45 179.722 1386.29 179.751 1390.12 179.907C1393.81 180.063 1397.79 180.177 1401.63 180.645C1406.32 181.213 1412.42 182.363 1417.68 183.257C1422.65 184.137 1427.77 184.847 1432.74 186.054C1438.7 187.502 1447.51 189.574 1453.76 192.002C1459.59 194.245 1465.55 198.134 1470.38 200.59C1474.36 202.691 1479.48 206.169 1482.6 206.752C1485.02 207.206 1487.29 204.977 1489.56 204.154C1492.26 203.217 1495.67 202.081 1498.65 201.144C1501.35 200.25 1504.19 199.426 1506.89 198.546C1509.59 197.666 1513.57 196.09 1514.99 195.863C1515.56 195.778 1515.7 196.743 1515.98 197.155C1516.98 198.305 1519.11 200.903 1520.67 202.72C1522.66 204.977 1525.64 207.83 1527.77 210.67C1530.19 213.821 1533.03 218.406 1535.02 221.572C1536.58 224.198 1538 226.867 1539.28 229.706C1540.99 234.107 1544.4 244.967 1545.68 248.005C1545.82 248.431 1546.67 248.176 1546.95 247.948C1547.95 247.395 1549.94 245.933 1551.36 244.726C1553.2 243.051 1556.47 239.601 1558.03 237.898C1558.89 236.875 1560.02 235.399 1560.31 234.519C1560.59 233.866 1560.16 233.128 1559.74 232.56C1558.6 230.856 1555.05 227.123 1553.2 224.255C1551.36 221.473 1549.51 218.25 1548.66 215.383C1547.95 212.686 1548.23 209.321 1548.37 206.993C1548.52 205.105 1548.8 203.131 1549.37 201.385C1549.94 199.653 1550.93 198.078 1551.92 196.559C1553.06 194.841 1554.91 192.343 1556.33 191.122C1557.32 190.128 1558.89 189.645 1560.31 189.177C1561.87 188.623 1564 187.97 1565.85 187.842C1567.55 187.715 1569.4 187.984 1571.1 188.396C1572.81 188.794 1574.65 189.574 1575.93 190.284C1576.93 190.88 1578.21 192.03 1578.49 192.669C1578.77 193.095 1578.35 193.649 1578.21 194.089C1577.21 196.119 1574.23 201.13 1572.67 204.849C1570.82 209.151 1568.55 217.683 1567.41 219.925C1566.98 220.692 1565.85 219.003 1565.28 218.265C1564.57 216.987 1563.15 214.147 1562.58 212.259C1562.01 210.556 1561.87 208.412 1562.15 206.964C1562.3 205.687 1563.15 204.367 1564 203.572C1564.85 202.791 1566.42 202.223 1567.27 202.237C1567.98 202.251 1568.69 203.018 1569.26 203.657C1569.82 204.367 1569.82 206.241 1570.68 206.496C1571.39 206.752 1572.95 205.814 1573.94 205.176C1575.36 204.281 1577.78 202.152 1579.2 201.13C1580.19 200.406 1581.76 199.001 1582.33 199.114C1582.89 199.228 1582.75 200.889 1582.89 201.811C1583.04 203.401 1583.18 206.383 1582.89 208.654C1582.61 211.337 1581.9 215.397 1581.19 217.867C1580.62 219.84 1578.92 222.225 1578.63 223.489C1578.35 224.099 1578.35 225.235 1578.92 225.391C1579.77 225.618 1582.33 225.306 1584.03 224.837C1585.59 224.369 1587.3 223.616 1588.58 222.58C1590.14 221.373 1591.99 219.315 1593.55 217.526C1595.11 215.709 1596.82 213.793 1598.09 211.692C1599.66 209.009 1602.07 204.736 1603.35 201.471C1604.49 198.489 1604.91 195.295 1605.34 192.158C1605.77 188.808 1606.05 184.947 1606.19 181.369C1606.48 177.82 1606.62 172.113 1606.9 170.708C1607.04 169.87 1607.75 172.17 1608.18 172.951C1608.89 174.526 1610.45 177.621 1611.02 180.134C1611.73 182.661 1611.59 185.443 1611.87 188.112C1612.16 191.179 1612.73 195.068 1612.58 198.546C1612.44 202.365 1612.16 207.007 1611.02 211.025C1609.6 215.454 1607.04 221.288 1604.63 225.164C1602.36 228.656 1599.09 231.921 1596.11 234.263C1593.55 236.393 1590.28 238.139 1587.3 239.204C1584.31 240.24 1580.9 240.595 1578.21 240.666C1575.51 240.737 1571.81 239.601 1570.39 239.658C1569.97 239.672 1569.97 240.524 1569.68 240.95C1568.69 242.838 1566.13 247.934 1564.14 250.944C1562.44 253.783 1560.02 256.438 1558.18 259.036C1556.33 261.506 1554.48 264.643 1552.92 266.559C1551.5 268.107 1548.66 269.129 1548.09 270.492C1547.38 271.798 1548.94 273.288 1548.94 274.736C1549.08 277.419 1548.66 282.644 1548.52 286.59C1548.23 291.417 1548.8 298.103 1547.66 303.696C1546.53 309.29 1543.83 315.252 1541.98 320.149C1540.13 324.55 1538.29 329.207 1536.02 333.082C1533.74 336.801 1531.04 340.237 1528.06 343.388C1525.08 346.611 1521.38 349.606 1517.83 352.389C1514 355.313 1509.02 358.962 1505.33 360.935C1502.2 362.582 1498.37 363.32 1495.24 364.228C1492.12 365.108 1487.15 365.747 1485.73 366.429C1485.16 366.727 1486.72 367.579 1486.86 368.274C1487 369.736 1487.15 372.873 1487.43 375.159C1487.72 378.509 1488.99 383.918 1488.99 388.347C1489.14 393.16 1488.85 399.775 1488 404.062C1487.29 407.597 1486.01 411.572 1484.02 414.085C1481.89 416.583 1478.48 418.259 1475.36 419.11C1471.52 420.132 1465.7 420.303 1461.01 420.189C1456.46 420.076 1451.06 419.139 1447.37 418.401C1444.53 417.818 1441.12 417.79 1438.85 415.76C1436.43 413.503 1434.16 408.548 1432.88 404.872C1431.74 401.28 1431.89 396.907 1431.6 393.642C1431.46 390.832 1432.31 386.559 1431.6 385.21C1431.18 384.074 1429.19 385.238 1427.91 385.522C1423.65 386.559 1412.28 390.136 1406.03 391.4C1400.92 392.436 1395.66 392.919 1390.41 393.132C1382.73 393.458 1365.54 392.862 1360.15 393.344C1359.01 393.444 1358.16 394.878 1357.87 395.999C1357.59 397.703 1358.3 401.294 1358.01 403.565C1357.73 405.652 1357.16 407.753 1356.03 409.599C1355.03 411.487 1353.47 413.503 1351.62 414.908C1349.49 416.541 1346.22 418.67 1343.24 419.408C1339.69 420.218 1334.29 419.834 1330.88 419.82C1327.9 419.806 1319.38 419.352 1322.22 419.309C1326.34 419.238 1344.38 419.423 1355.32 419.408C1387.42 419.352 1471.38 421.878 1514.85 418.982C1549.08 416.711 1583.18 410.437 1616.42 402.061C1652.5 393.004 1696.12 384.003 1731.06 364.612C1802.09 325.061 1834.91 269.356 1920 320.831M1443.53 42.7161C1444.24 44.8455 1445.95 52.3268 1446.09 52.994C1446.38 53.9878 1437.99 59.5952 1437.71 59.7656C1437.43 59.9785 1436.01 52.0855 1435.58 50.5239C1435.58 50.4388 1443.68 45.0159 1443.53 42.7161Z" stroke="black" stroke-width="3" stroke-miterlimit="1.5" stroke-linecap="round" stroke-linejoin="round"/>
</svg>
